<svg  viewBox="0 0 12 12" fill="none" xmlns="http://www.w3.org/2000/svg">
<g id="icons">
<path id="Vector" d="M7.3322 8.8432C7.25271 8.92851 7.20944 9.04133 7.2115 9.15791C7.21355 9.27449 7.26078 9.38573 7.34323 9.46817C7.42568 9.55062 7.53691 9.59785 7.65349 9.59991C7.77007 9.60196 7.8829 9.55869 7.9682 9.4792L10.6682 6.7792C10.7525 6.69482 10.7998 6.58045 10.7998 6.4612C10.7998 6.34195 10.7525 6.22758 10.6682 6.1432L7.9682 3.4432C7.8829 3.36371 7.77007 3.32044 7.65349 3.32249C7.53691 3.32455 7.42568 3.37178 7.34323 3.45423C7.26078 3.53667 7.21355 3.64791 7.2115 3.76449C7.20944 3.88107 7.25271 3.99389 7.3322 4.0792L9.2642 6.0112L5.5502 6.0112C4.6352 6.0112 3.75768 5.64772 3.11068 5.00072C2.46368 4.35372 2.1002 3.4762 2.1002 2.5612C2.1002 2.44185 2.05279 2.32739 1.9684 2.243C1.88401 2.15861 1.76955 2.1112 1.6502 2.1112C1.53085 2.1112 1.41639 2.15861 1.332 2.243C1.24761 2.32739 1.2002 2.44185 1.2002 2.5612C1.2002 3.71489 1.6585 4.82133 2.47429 5.63711C3.29007 6.4529 4.39651 6.9112 5.5502 6.9112L9.2642 6.9112L7.3322 8.8432Z" fill="currentColor"/>
</g>
</svg>
