<svg width="18" height="18" viewBox="0 0 18 18" fill="none" xmlns="http://www.w3.org/2000/svg">
<g id="icons">
<path id="Vector (Stroke)" fill-rule="evenodd" clip-rule="evenodd" d="M7.5 3C6.30653 3 5.16193 3.47411 4.31802 4.31802C3.47411 5.16193 3 6.30653 3 7.5C3 8.09095 3.1164 8.67611 3.34254 9.22208C3.56869 9.76804 3.90016 10.2641 4.31802 10.682C4.73588 11.0998 5.23196 11.4313 5.77792 11.6575C6.32389 11.8836 6.90905 12 7.5 12C8.09095 12 8.67611 11.8836 9.22208 11.6575C9.76804 11.4313 10.2641 11.0998 10.682 10.682C11.0998 10.2641 11.4313 9.76804 11.6575 9.22208C11.8836 8.67611 12 8.09095 12 7.5C12 6.30653 11.5259 5.16193 10.682 4.31802C9.83807 3.47411 8.69347 3 7.5 3ZM3.25736 3.25736C4.38258 2.13214 5.9087 1.5 7.5 1.5C9.0913 1.5 10.6174 2.13214 11.7426 3.25736C12.8679 4.38258 13.5 5.9087 13.5 7.5C13.5 8.28793 13.3448 9.06815 13.0433 9.7961C12.8379 10.2919 12.5674 10.7569 12.2397 11.179L16.2803 15.2197C16.5732 15.5126 16.5732 15.9874 16.2803 16.2803C15.9874 16.5732 15.5126 16.5732 15.2197 16.2803L11.179 12.2397C10.7569 12.5674 10.2919 12.8379 9.7961 13.0433C9.06815 13.3448 8.28793 13.5 7.5 13.5C6.71207 13.5 5.93185 13.3448 5.2039 13.0433C4.47595 12.7417 3.81451 12.2998 3.25736 11.7426C2.70021 11.1855 2.25825 10.5241 1.95672 9.7961C1.65519 9.06815 1.5 8.28793 1.5 7.5C1.5 5.9087 2.13214 4.38258 3.25736 3.25736Z" fill="currentColor"/>
</g>
</svg>
