<svg width="82" height="82" viewBox="0 0 82 82" fill="none" xmlns="http://www.w3.org/2000/svg">
<g id="Frame" clip-path="url(#clip0_5152_6312)">
<g id="Group">
<g id="Clip path group">
<mask id="mask0_5152_6312" style="mask-type:luminance" maskUnits="userSpaceOnUse" x="0" y="0" width="82" height="82">
<g id="SVGID_2_">
<path id="Vector" d="M82 0H0V82H82V0Z" fill="white"/>
</g>
</mask>
<g mask="url(#mask0_5152_6312)">
<g id="Group_2">
<g id="Clip path group_2">
<mask id="mask1_5152_6312" style="mask-type:luminance" maskUnits="userSpaceOnUse" x="0" y="0" width="82" height="82">
<g id="SVGID_4_">
<path id="Vector_2" d="M82 0H0V82H82V0Z" fill="white"/>
</g>
</mask>
<g mask="url(#mask1_5152_6312)">
<g id="Group_3">
<g id="Group_4">
<g id="Clip path group_3">
<mask id="mask2_5152_6312" style="mask-type:luminance" maskUnits="userSpaceOnUse" x="0" y="11" width="74" height="64">
<g id="SVGID_6_">
<path id="Vector_3" d="M73.7489 11.502H0.867676V74.617H73.7489V11.502Z" fill="white"/>
</g>
</mask>
<g mask="url(#mask2_5152_6312)">
<path id="Vector_4" d="M55.5389 11.502H19.0914L0.867676 43.0595L19.0914 74.617H55.5389L73.7489 43.0595L55.5389 11.502Z" fill="#C3C5C4"/>
</g>
</g>
</g>
</g>
</g>
</g>
</g>
</g>
</g>
<g id="Clip path group_4">
<mask id="mask3_5152_6312" style="mask-type:luminance" maskUnits="userSpaceOnUse" x="0" y="0" width="82" height="82">
<g id="SVGID_2__2">
<path id="Vector_5" d="M82 0H0V82H82V0Z" fill="white"/>
</g>
</mask>
<g mask="url(#mask3_5152_6312)">
<path id="Vector_6" d="M60.1536 8.69189H23.7061L5.49609 40.2494L23.7061 71.807H60.1536L78.3773 40.2494L60.1536 8.69189Z" fill="#48C3D2"/>
</g>
</g>
<g id="Clip path group_5">
<mask id="mask4_5152_6312" style="mask-type:luminance" maskUnits="userSpaceOnUse" x="0" y="0" width="82" height="82">
<g id="SVGID_2__3">
<path id="Vector_7" d="M82 0H0V82H82V0Z" fill="white"/>
</g>
</mask>
<g mask="url(#mask4_5152_6312)">
<g id="Group_5">
<g id="Clip path group_6">
<mask id="mask5_5152_6312" style="mask-type:luminance" maskUnits="userSpaceOnUse" x="0" y="0" width="82" height="82">
<g id="SVGID_8_">
<path id="Vector_8" d="M82 0H0V82H82V0Z" fill="white"/>
</g>
</mask>
<g mask="url(#mask5_5152_6312)">
<g id="Group_6" opacity="0.75">
<g id="Group_7">
<g id="Clip path group_7">
<mask id="mask6_5152_6312" style="mask-type:luminance" maskUnits="userSpaceOnUse" x="28" y="22" width="28" height="33">
<g id="SVGID_10_">
<path id="Vector_9" d="M55.1671 22.3149H28.3342V54.8505H55.1671V22.3149Z" fill="white"/>
</g>
</mask>
<g mask="url(#mask6_5152_6312)">
<path id="Vector_10" d="M30.4693 26.4473L30.9789 27.99H32.6043L31.282 28.9542L31.7916 30.497L30.4693 29.5465L29.1469 30.497L29.6566 28.9542L28.3342 27.99H29.9596L30.4693 26.4473Z" fill="white"/>
</g>
</g>
<g id="Clip path group_8">
<mask id="mask7_5152_6312" style="mask-type:luminance" maskUnits="userSpaceOnUse" x="28" y="22" width="28" height="33">
<g id="SVGID_10__2">
<path id="Vector_11" d="M55.1671 22.3149H28.3342V54.8505H55.1671V22.3149Z" fill="white"/>
</g>
</mask>
<g mask="url(#mask7_5152_6312)">
<path id="Vector_12" d="M30.4693 46.6548L30.9789 48.2113H32.6043L31.282 49.1618L31.7916 50.7183L30.4693 49.7541L29.1469 50.7183L29.6566 49.1618L28.3342 48.2113H29.9596L30.4693 46.6548Z" fill="white"/>
</g>
</g>
<g id="Clip path group_9">
<mask id="mask8_5152_6312" style="mask-type:luminance" maskUnits="userSpaceOnUse" x="28" y="22" width="28" height="33">
<g id="SVGID_10__3">
<path id="Vector_13" d="M55.1671 22.3149H28.3342V54.8505H55.1671V22.3149Z" fill="white"/>
</g>
</mask>
<g mask="url(#mask8_5152_6312)">
<path id="Vector_14" d="M37.6184 22.3149L38.128 23.8577H39.7534L38.4448 24.8219L38.9407 26.3647L37.6184 25.4142L36.3098 26.3647L36.8057 24.8219L35.4971 23.8577H37.1225L37.6184 22.3149Z" fill="white"/>
</g>
</g>
<g id="Clip path group_10">
<mask id="mask9_5152_6312" style="mask-type:luminance" maskUnits="userSpaceOnUse" x="28" y="22" width="28" height="33">
<g id="SVGID_10__4">
<path id="Vector_15" d="M55.1671 22.3149H28.3342V54.8505H55.1671V22.3149Z" fill="white"/>
</g>
</mask>
<g mask="url(#mask9_5152_6312)">
<path id="Vector_16" d="M37.6184 50.7871L38.128 52.3436H39.7534L38.4448 53.2941L38.9407 54.8506L37.6184 53.8864L36.3098 54.8506L36.8057 53.2941L35.4971 52.3436H37.1225L37.6184 50.7871Z" fill="white"/>
</g>
</g>
<g id="Clip path group_11">
<mask id="mask10_5152_6312" style="mask-type:luminance" maskUnits="userSpaceOnUse" x="28" y="22" width="28" height="33">
<g id="SVGID_10__5">
<path id="Vector_17" d="M55.1671 22.3149H28.3342V54.8505H55.1671V22.3149Z" fill="white"/>
</g>
</mask>
<g mask="url(#mask10_5152_6312)">
<path id="Vector_18" d="M53.0457 26.4473L52.536 27.99H50.9106L52.233 28.9542L51.7233 30.497L53.0457 29.5465L54.3543 30.497L53.8584 28.9542L55.1808 27.99H53.5416L53.0457 26.4473Z" fill="white"/>
</g>
</g>
<g id="Clip path group_12">
<mask id="mask11_5152_6312" style="mask-type:luminance" maskUnits="userSpaceOnUse" x="28" y="22" width="28" height="33">
<g id="SVGID_10__6">
<path id="Vector_19" d="M55.1671 22.3149H28.3342V54.8505H55.1671V22.3149Z" fill="white"/>
</g>
</mask>
<g mask="url(#mask11_5152_6312)">
<path id="Vector_20" d="M53.0457 46.6548L52.536 48.2113H50.9106L52.233 49.1618L51.7233 50.7183L53.0457 49.7541L54.3543 50.7183L53.8584 49.1618L55.1808 48.2113H53.5416L53.0457 46.6548Z" fill="white"/>
</g>
</g>
<g id="Clip path group_13">
<mask id="mask12_5152_6312" style="mask-type:luminance" maskUnits="userSpaceOnUse" x="28" y="22" width="28" height="33">
<g id="SVGID_10__7">
<path id="Vector_21" d="M55.1671 22.3149H28.3342V54.8505H55.1671V22.3149Z" fill="white"/>
</g>
</mask>
<g mask="url(#mask12_5152_6312)">
<path id="Vector_22" d="M45.8831 22.3149L45.3872 23.8577H43.748L45.0704 24.8219L44.5745 26.3647L45.8831 25.4142L47.2055 26.3647L46.6958 24.8219L48.0182 23.8577H46.3928L45.8831 22.3149Z" fill="white"/>
</g>
</g>
<g id="Clip path group_14">
<mask id="mask13_5152_6312" style="mask-type:luminance" maskUnits="userSpaceOnUse" x="28" y="22" width="28" height="33">
<g id="SVGID_10__8">
<path id="Vector_23" d="M55.1671 22.3149H28.3342V54.8505H55.1671V22.3149Z" fill="white"/>
</g>
</mask>
<g mask="url(#mask13_5152_6312)">
<path id="Vector_24" d="M45.8831 50.7871L45.3872 52.3436H43.748L45.0704 53.2941L44.5745 54.8506L45.8831 53.8864L47.2055 54.8506L46.6958 53.2941L48.0182 52.3436H46.3928L45.8831 50.7871Z" fill="white"/>
</g>
</g>
</g>
</g>
</g>
</g>
<g id="Clip path group_15">
<mask id="mask14_5152_6312" style="mask-type:luminance" maskUnits="userSpaceOnUse" x="0" y="0" width="82" height="82">
<g id="SVGID_8__2">
<path id="Vector_25" d="M82 0H0V82H82V0Z" fill="white"/>
</g>
</mask>
<g mask="url(#mask14_5152_6312)">
<g id="Group_8" opacity="0.5">
<g id="Group_9">
<g id="Clip path group_16">
<mask id="mask15_5152_6312" style="mask-type:luminance" maskUnits="userSpaceOnUse" x="17" y="29" width="48" height="23">
<g id="SVGID_12_">
<path id="Vector_26" d="M64.6439 29.2847H17.9619V51.2964H64.6439V29.2847Z" fill="white"/>
</g>
</mask>
<g mask="url(#mask15_5152_6312)">
<path id="Vector_27" d="M20.8133 36.6541C21.1025 37.9627 22.48 38.982 23.9814 38.982C25.1385 38.982 26.0063 38.4862 26.5572 37.5357H29.4086C28.9953 38.6515 28.7336 39.0647 27.9347 39.8223C26.819 40.8967 25.4002 41.4752 23.8988 41.4752C20.6204 41.4752 17.9619 38.803 17.9619 35.4833C17.9619 32.081 20.6204 29.3398 23.9125 29.3398C27.1082 29.3398 29.7667 32.0259 29.7667 35.2905C29.7667 35.745 29.7254 36.1307 29.6014 36.6541H20.8133ZM23.9539 31.8193C23.1412 31.8193 22.3285 32.1499 21.7361 32.7008C21.1852 33.2105 20.9785 33.5549 20.7306 34.4778H26.998C26.6674 32.8248 25.5242 31.8193 23.9539 31.8193Z" fill="white"/>
</g>
</g>
<g id="Clip path group_17">
<mask id="mask16_5152_6312" style="mask-type:luminance" maskUnits="userSpaceOnUse" x="17" y="29" width="48" height="23">
<g id="SVGID_12__2">
<path id="Vector_28" d="M64.6439 29.2847H17.9619V51.2964H64.6439V29.2847Z" fill="white"/>
</g>
</mask>
<g mask="url(#mask16_5152_6312)">
<path id="Vector_29" d="M64.3684 31.461C63.0874 29.8219 61.586 29.2847 59.7539 29.2847C57.9219 29.2847 55.291 30.4142 55.2083 32.7008C55.1257 34.9873 57.7015 35.9378 58.5969 36.3097C59.506 36.6816 61.5446 37.2877 61.2691 38.1004C60.9937 38.9269 59.2994 39.4916 56.8337 37.6734L54.5747 39.5329C54.5747 39.5329 56.0899 41.5303 59.6713 41.4752C63.2527 41.4201 64.6301 39.2712 64.6301 38.0866C64.6301 36.9571 64.2169 35.7449 62.6191 34.9873C61.0212 34.2435 57.8806 33.4033 58.3489 32.2462C58.8173 31.0891 60.3738 31.4748 61.0625 31.9432C61.7513 32.4115 62.4538 33.0451 62.4538 33.0451L64.3684 31.461Z" fill="white"/>
</g>
</g>
<g id="Clip path group_18">
<mask id="mask17_5152_6312" style="mask-type:luminance" maskUnits="userSpaceOnUse" x="17" y="29" width="48" height="23">
<g id="SVGID_12__3">
<path id="Vector_30" d="M64.6439 29.2847H17.9619V51.2964H64.6439V29.2847Z" fill="white"/>
</g>
</mask>
<g mask="url(#mask17_5152_6312)">
<path id="Vector_31" d="M45.208 38.0451V33.7336C45.208 33.224 45.6213 32.797 46.1447 32.797H50.9245V29.3809L46.1034 29.4222C43.7204 29.4222 41.7919 31.3506 41.7919 33.7336V38.0451H36.2821C34.8633 38.0451 33.8027 36.9155 33.8027 35.4003C33.8027 33.8989 34.822 32.8107 36.2408 32.8107H41.4476V29.3946H36.1995C32.8936 29.3946 30.2075 32.1082 30.2075 35.4141C30.2075 38.7751 32.9211 41.4749 36.2821 41.4749H41.7919V51.2962H45.208V41.4612H54.2166V38.0451H45.208ZM53.3901 40.6485H44.3816V50.4697H42.6046V40.6485H36.2683C33.3757 40.6485 31.0064 38.293 31.0064 35.4141C31.0064 32.549 33.3206 30.2211 36.1857 30.2211H40.6073V31.998H36.227C34.3674 31.998 32.9624 33.4581 32.9624 35.4141C32.9624 37.3977 34.3812 38.8853 36.2683 38.8853H42.6046V33.7474C42.6046 31.819 44.1749 30.2624 46.0896 30.2624L50.0842 30.2349V31.998H46.1447C45.1805 31.998 44.3953 32.7832 44.3953 33.7474V38.8853H53.4039V40.6485H53.3901Z" fill="white"/>
</g>
</g>
</g>
</g>
</g>
</g>
<g id="Clip path group_19">
<mask id="mask18_5152_6312" style="mask-type:luminance" maskUnits="userSpaceOnUse" x="0" y="0" width="82" height="82">
<g id="SVGID_8__3">
<path id="Vector_32" d="M82 0H0V82H82V0Z" fill="white"/>
</g>
</mask>
<g mask="url(#mask18_5152_6312)">
<path id="Vector_33" d="M28.2102 58.7346V56.0898H29.1056C29.3948 56.0898 29.6014 56.1312 29.7392 56.1863C30.0284 56.324 30.2075 56.6271 30.2075 56.9852C30.2075 57.4811 29.932 57.9081 29.1744 57.9081H28.8576V58.7346H28.2102ZM29.1469 57.3158C29.4224 57.3158 29.5601 57.2194 29.5601 56.999C29.5601 56.7786 29.4224 56.6821 29.1331 56.6821H28.8714V57.3158H29.1469Z" fill="white"/>
</g>
</g>
<g id="Clip path group_20">
<mask id="mask19_5152_6312" style="mask-type:luminance" maskUnits="userSpaceOnUse" x="0" y="0" width="82" height="82">
<g id="SVGID_8__4">
<path id="Vector_34" d="M82 0H0V82H82V0Z" fill="white"/>
</g>
</mask>
<g mask="url(#mask19_5152_6312)">
<path id="Vector_35" d="M31.8744 58.7345V58.5141H31.8606C31.7779 58.6932 31.5438 58.8034 31.2821 58.8034C30.6897 58.8034 30.2903 58.3489 30.2903 57.7428C30.2903 57.1505 30.7173 56.6821 31.2821 56.6821C31.53 56.6821 31.7504 56.7786 31.8606 56.9576H31.8744V56.751H32.4667V58.7345H31.8744ZM31.8744 57.7428C31.8744 57.4673 31.654 57.2331 31.3647 57.2331C31.0892 57.2331 30.8826 57.4535 30.8826 57.7428C30.8826 58.0183 31.103 58.2387 31.3785 58.2387C31.654 58.2524 31.8744 58.032 31.8744 57.7428Z" fill="white"/>
</g>
</g>
<g id="Clip path group_21">
<mask id="mask20_5152_6312" style="mask-type:luminance" maskUnits="userSpaceOnUse" x="0" y="0" width="82" height="82">
<g id="SVGID_8__5">
<path id="Vector_36" d="M82 0H0V82H82V0Z" fill="white"/>
</g>
</mask>
<g mask="url(#mask20_5152_6312)">
<path id="Vector_37" d="M33.0315 58.7346V57.2056H32.7422V56.751H33.0315V56.0898H33.6238V56.751H33.913V57.2056H33.6238V58.7346H33.0315Z" fill="white"/>
</g>
</g>
<g id="Clip path group_22">
<mask id="mask21_5152_6312" style="mask-type:luminance" maskUnits="userSpaceOnUse" x="0" y="0" width="82" height="82">
<g id="SVGID_8__6">
<path id="Vector_38" d="M82 0H0V82H82V0Z" fill="white"/>
</g>
</mask>
<g mask="url(#mask21_5152_6312)">
<path id="Vector_39" d="M34.1748 56.0898H34.7671V56.5444H34.1748V56.0898ZM34.1748 56.751H34.7671V58.7346H34.1748V56.751Z" fill="white"/>
</g>
</g>
<g id="Clip path group_23">
<mask id="mask22_5152_6312" style="mask-type:luminance" maskUnits="userSpaceOnUse" x="0" y="0" width="82" height="82">
<g id="SVGID_8__7">
<path id="Vector_40" d="M82 0H0V82H82V0Z" fill="white"/>
</g>
</mask>
<g mask="url(#mask22_5152_6312)">
<path id="Vector_41" d="M35.6762 57.9222C35.7037 58.1426 35.8966 58.2941 36.1445 58.2941C36.3098 58.2941 36.4062 58.239 36.5027 58.1151H37.1087C36.9159 58.5421 36.5578 58.8038 36.1445 58.8038C35.5798 58.8038 35.0977 58.3492 35.0977 57.7569C35.0977 57.1784 35.5522 56.6963 36.1307 56.6963C36.7231 56.6963 37.1776 57.1646 37.1776 57.7845C37.1776 57.8396 37.1776 57.8947 37.1638 57.936H35.6762V57.9222ZM36.5853 57.5228C36.544 57.3161 36.3649 57.1784 36.1307 57.1784C35.9104 57.1784 35.7313 57.3024 35.69 57.5228H36.5853Z" fill="white"/>
</g>
</g>
<g id="Clip path group_24">
<mask id="mask23_5152_6312" style="mask-type:luminance" maskUnits="userSpaceOnUse" x="0" y="0" width="82" height="82">
<g id="SVGID_8__8">
<path id="Vector_42" d="M82 0H0V82H82V0Z" fill="white"/>
</g>
</mask>
<g mask="url(#mask23_5152_6312)">
<path id="Vector_43" d="M38.7479 58.7345V57.6326C38.7479 57.3709 38.6514 57.2331 38.4311 57.2331C38.1969 57.2331 38.0867 57.3709 38.0867 57.6326V58.7208H37.4944V56.751H38.0454V56.9576H38.0591C38.1831 56.751 38.3622 56.6821 38.5964 56.6821C38.9545 56.6821 39.3264 56.8887 39.3264 57.4673V58.7345H38.7479Z" fill="white"/>
</g>
</g>
<g id="Clip path group_25">
<mask id="mask24_5152_6312" style="mask-type:luminance" maskUnits="userSpaceOnUse" x="0" y="0" width="82" height="82">
<g id="SVGID_8__9">
<path id="Vector_44" d="M82 0H0V82H82V0Z" fill="white"/>
</g>
</mask>
<g mask="url(#mask24_5152_6312)">
<path id="Vector_45" d="M39.8774 58.7346V57.2056H39.5881V56.751H39.8774V56.0898H40.4697V56.751H40.759V57.2056H40.4697V58.7346H39.8774Z" fill="white"/>
</g>
</g>
<g id="Clip path group_26">
<mask id="mask25_5152_6312" style="mask-type:luminance" maskUnits="userSpaceOnUse" x="0" y="0" width="82" height="82">
<g id="SVGID_8__10">
<path id="Vector_46" d="M82 0H0V82H82V0Z" fill="white"/>
</g>
</mask>
<g mask="url(#mask25_5152_6312)">
<path id="Vector_47" d="M43.4036 58.7346L42.7976 57.8805H42.7838V58.7346H42.1501V56.0898H43.0179C43.2934 56.0898 43.5001 56.1312 43.6378 56.1863C43.9271 56.3102 44.1199 56.627 44.1199 56.999C44.1199 57.4122 43.872 57.7566 43.4587 57.8254L44.175 58.7208H43.4036V58.7346ZM43.0455 57.426C43.3072 57.426 43.4725 57.302 43.4725 57.0403C43.4725 56.8061 43.3072 56.6821 43.0455 56.6821H42.7838V57.4122H43.0455V57.426Z" fill="white"/>
</g>
</g>
<g id="Clip path group_27">
<mask id="mask26_5152_6312" style="mask-type:luminance" maskUnits="userSpaceOnUse" x="0" y="0" width="82" height="82">
<g id="SVGID_8__11">
<path id="Vector_48" d="M82 0H0V82H82V0Z" fill="white"/>
</g>
</mask>
<g mask="url(#mask26_5152_6312)">
<path id="Vector_49" d="M44.9325 57.9222C44.9601 58.1426 45.1529 58.2941 45.4009 58.2941C45.5662 58.2941 45.6626 58.239 45.759 58.1151H46.3651C46.1722 58.5421 45.8141 58.8038 45.4009 58.8038C44.8361 58.8038 44.354 58.3492 44.354 57.7569C44.354 57.1784 44.8086 56.6963 45.3871 56.6963C45.9794 56.6963 46.434 57.1646 46.434 57.7845C46.434 57.8396 46.434 57.8947 46.4202 57.936H44.9325V57.9222ZM45.8417 57.5228C45.8003 57.3161 45.6213 57.1784 45.3871 57.1784C45.1667 57.1784 44.9876 57.3024 44.9463 57.5228H45.8417Z" fill="white"/>
</g>
</g>
<g id="Clip path group_28">
<mask id="mask27_5152_6312" style="mask-type:luminance" maskUnits="userSpaceOnUse" x="0" y="0" width="82" height="82">
<g id="SVGID_8__12">
<path id="Vector_50" d="M82 0H0V82H82V0Z" fill="white"/>
</g>
</mask>
<g mask="url(#mask27_5152_6312)">
<path id="Vector_51" d="M48.2249 58.5004C48.1422 58.6932 47.9081 58.8034 47.6739 58.8034C47.0954 58.8034 46.6821 58.3626 46.6821 57.7565C46.6821 57.1505 47.1091 56.6821 47.6739 56.6821C47.9356 56.6821 48.1285 56.7785 48.2249 56.9301H48.2387V56.751H48.831V58.5279C48.831 58.7896 48.7896 58.9963 48.7208 59.134C48.583 59.4095 48.1836 59.6161 47.6877 59.6161C47.1229 59.6161 46.7648 59.2993 46.7097 58.9136H47.3984C47.4673 59.0651 47.605 59.1065 47.7428 59.1065C48.0458 59.1065 48.2249 58.9136 48.2249 58.5555V58.5004ZM48.2249 57.7565C48.2249 57.4673 48.032 57.2469 47.7428 57.2469C47.4811 57.2469 47.2607 57.4673 47.2607 57.7428C47.2607 58.0183 47.4535 58.2524 47.7428 58.2524C48.032 58.2524 48.2249 58.0458 48.2249 57.7565Z" fill="white"/>
</g>
</g>
<g id="Clip path group_29">
<mask id="mask28_5152_6312" style="mask-type:luminance" maskUnits="userSpaceOnUse" x="0" y="0" width="82" height="82">
<g id="SVGID_8__13">
<path id="Vector_52" d="M82 0H0V82H82V0Z" fill="white"/>
</g>
</mask>
<g mask="url(#mask28_5152_6312)">
<path id="Vector_53" d="M49.2717 56.0898H49.864V56.5444H49.2717V56.0898ZM49.2717 56.751H49.864V58.7346H49.2717V56.751Z" fill="white"/>
</g>
</g>
<g id="Clip path group_30">
<mask id="mask29_5152_6312" style="mask-type:luminance" maskUnits="userSpaceOnUse" x="0" y="0" width="82" height="82">
<g id="SVGID_8__14">
<path id="Vector_54" d="M82 0H0V82H82V0Z" fill="white"/>
</g>
</mask>
<g mask="url(#mask29_5152_6312)">
<path id="Vector_55" d="M51.145 57.3161C51.145 57.2059 51.0623 57.1646 50.9659 57.1646C50.8695 57.1646 50.8006 57.2197 50.8006 57.3024C50.8006 57.4126 50.897 57.4677 51.1725 57.5365C51.6409 57.6605 51.7924 57.8534 51.7924 58.1426C51.7924 58.5559 51.4343 58.8176 50.9797 58.8176C50.5389 58.8176 50.2083 58.5696 50.167 58.1564H50.7593C50.7731 58.2804 50.8695 58.3355 50.9797 58.3355C51.0899 58.3355 51.1863 58.2804 51.1863 58.1839C51.1863 58.0737 51.1174 58.0186 50.8282 57.9222C50.3323 57.7707 50.1945 57.5779 50.1945 57.3437C50.1945 56.9442 50.5665 56.6963 50.9659 56.6963C51.3929 56.6963 51.696 56.9305 51.7235 57.3161H51.145Z" fill="white"/>
</g>
</g>
<g id="Clip path group_31">
<mask id="mask30_5152_6312" style="mask-type:luminance" maskUnits="userSpaceOnUse" x="0" y="0" width="82" height="82">
<g id="SVGID_8__15">
<path id="Vector_56" d="M82 0H0V82H82V0Z" fill="white"/>
</g>
</mask>
<g mask="url(#mask30_5152_6312)">
<path id="Vector_57" d="M52.1919 58.7346V57.2056H51.9026V56.751H52.1919V56.0898H52.7979V56.751H53.0734V57.2056H52.7979V58.7346H52.1919Z" fill="white"/>
</g>
</g>
<g id="Clip path group_32">
<mask id="mask31_5152_6312" style="mask-type:luminance" maskUnits="userSpaceOnUse" x="0" y="0" width="82" height="82">
<g id="SVGID_8__16">
<path id="Vector_58" d="M82 0H0V82H82V0Z" fill="white"/>
</g>
</mask>
<g mask="url(#mask31_5152_6312)">
<path id="Vector_59" d="M53.3352 58.7345V56.751H53.8862V56.9576H53.9C54.0102 56.751 54.1617 56.6821 54.3958 56.6821V57.2744C54.0377 57.2744 53.9275 57.4122 53.9275 57.6326V58.7208H53.3352V58.7345Z" fill="white"/>
</g>
</g>
<g id="Clip path group_33">
<mask id="mask32_5152_6312" style="mask-type:luminance" maskUnits="userSpaceOnUse" x="0" y="0" width="82" height="82">
<g id="SVGID_8__17">
<path id="Vector_60" d="M82 0H0V82H82V0Z" fill="white"/>
</g>
</mask>
<g mask="url(#mask32_5152_6312)">
<path id="Vector_61" d="M54.988 59.3957L55.3049 58.6381L54.561 56.751H55.1947L55.5941 57.908H55.6079L55.9798 56.751H56.6134L55.6217 59.3957H54.988Z" fill="white"/>
</g>
</g>
<g id="Clip path group_34">
<mask id="mask33_5152_6312" style="mask-type:luminance" maskUnits="userSpaceOnUse" x="0" y="0" width="82" height="82">
<g id="SVGID_8__18">
<path id="Vector_62" d="M82 0H0V82H82V0Z" fill="white"/>
</g>
</mask>
<g mask="url(#mask33_5152_6312)">
<path id="Vector_63" d="M39.8085 34.0093C38.8719 34.0093 37.9765 34.2434 37.1914 34.6842V34.3536H34.7395V37.6733V41.1858V48.018H37.1914V44.23C38.0041 44.6846 38.9683 44.9325 39.8912 44.9325C42.8803 44.9325 45.3184 42.4806 45.3184 39.4778C45.3046 36.4474 42.8527 34.0093 39.8085 34.0093ZM39.5468 42.6873C38.803 42.6873 38.1556 42.4255 37.7148 41.9434C37.4944 41.7093 37.398 41.5991 37.1776 41.1858C36.6817 40.3318 36.7919 38.4309 37.1776 37.6733C37.5633 36.9157 38.5275 36.2545 39.4917 36.2545C41.2273 36.2545 42.5359 37.6458 42.5359 39.5053C42.5359 41.3649 41.2824 42.6873 39.5468 42.6873Z" fill="white"/>
</g>
</g>
<g id="Clip path group_35">
<mask id="mask34_5152_6312" style="mask-type:luminance" maskUnits="userSpaceOnUse" x="0" y="0" width="82" height="82">
<g id="SVGID_8__19">
<path id="Vector_64" d="M82 0H0V82H82V0Z" fill="white"/>
</g>
</mask>
<g mask="url(#mask34_5152_6312)">
<path id="Vector_65" d="M50.7867 34.0093C50.0704 34.0093 49.3679 34.2159 48.7756 34.6154C48.5001 34.7944 48.3762 34.9046 48.018 35.249V34.3674H45.7314V36.5438V44.6157H48.1833V39.7395C48.1833 38.7064 48.1971 38.3896 48.3348 37.8386C48.4313 37.4942 48.6103 37.1361 48.872 36.8744C49.244 36.4887 49.8087 36.2683 50.3735 36.2683C50.5112 36.2683 50.6352 36.2821 50.7454 36.2959L50.7867 34.0093Z" fill="white"/>
</g>
</g>
</g>
</g>
</g>
</g>
</g>
<defs>
<clipPath id="clip0_5152_6312">
<rect width="82" height="82" fill="white"/>
</clipPath>
</defs>
</svg>
