<svg width="739" height="172" viewBox="0 0 739 172" fill="none" xmlns="http://www.w3.org/2000/svg">
<rect width="209" height="78" rx="2" fill="#A0C8E9"/>
<path d="M22.3633 29H21.2617L17.9512 22.625L17.9336 29H16.8379V20.4688H17.9395L21.25 26.832L21.2676 20.4688H22.3633V29ZM28.4188 26.791H25.5712L24.8856 29H23.8016L26.5555 20.4688H27.4637L30.1708 29H29.0927L28.4188 26.791ZM25.8641 25.8477H28.1317L27.0067 22.1445L25.8641 25.8477ZM37.4275 21.3945H34.7908V29H33.7361V21.3945H31.0994V20.4688H37.4275V21.3945ZM39.0006 20.4688H44.1569V21.4121H42.112V28.0625H44.1569V29H39.0006V28.0625H40.9987V21.4121H39.0006V20.4688ZM46.3277 20.4688H51.4839V21.4121H49.439V28.0625H51.4839V29H46.3277V28.0625H48.3257V21.4121H46.3277V20.4688ZM58.9984 29H57.8969L54.5863 22.625L54.5687 29H53.473V20.4688H54.5746L57.8852 26.832L57.9027 20.4688H58.9984V29ZM65.054 26.791H62.2063L61.5208 29H60.4368L63.1907 20.4688H64.0989L66.8059 29H65.7278L65.054 26.791ZM62.4993 25.8477H64.7669L63.6419 22.1445L62.4993 25.8477ZM69.5334 28.0801H73.7052V29H68.4494V20.4688H69.5334V28.0801ZM85.787 25.5195H84.082V29H83.0038V20.4688H85.5058C85.9042 20.4766 86.2792 20.5332 86.6308 20.6387C86.9823 20.7441 87.2909 20.9023 87.5566 21.1133C87.8183 21.3242 88.0234 21.5898 88.1718 21.9102C88.3241 22.2266 88.4003 22.5996 88.4003 23.0293C88.4003 23.3066 88.3593 23.5605 88.2773 23.791C88.1991 24.0215 88.0898 24.2305 87.9491 24.418C87.8085 24.6055 87.6405 24.7715 87.4452 24.916C87.2499 25.0605 87.0351 25.1836 86.8007 25.2852L88.6113 28.9297L88.6054 29H87.4628L85.787 25.5195ZM84.082 24.6289H85.5351C85.7773 24.625 86.0058 24.5879 86.2206 24.5176C86.4355 24.4434 86.6249 24.3379 86.789 24.2012C86.9491 24.0645 87.0761 23.8984 87.1698 23.7031C87.2636 23.5039 87.3105 23.2754 87.3105 23.0176C87.3105 22.7441 87.2655 22.5059 87.1757 22.3027C87.0859 22.0957 86.9609 21.9219 86.8007 21.7812C86.6405 21.6445 86.4491 21.541 86.2265 21.4707C86.0077 21.4004 85.7675 21.3633 85.5058 21.3594H84.082V24.6289ZM94.9832 25.0566H91.4207V28.0801H95.575V29H90.3367V20.4688H95.5223V21.3945H91.4207V24.1367H94.9832V25.0566ZM103.136 27.8809C103.004 28.0371 102.863 28.1797 102.715 28.3086C102.566 28.4336 102.412 28.543 102.252 28.6367C101.978 28.8008 101.683 28.9219 101.367 29C101.05 29.082 100.718 29.1211 100.371 29.1172C100.019 29.1133 99.695 29.0605 99.3981 28.959C99.1052 28.8535 98.8415 28.709 98.6071 28.5254C98.3727 28.3457 98.1677 28.1328 97.9919 27.8867C97.8161 27.6406 97.6696 27.373 97.5524 27.084C97.4313 26.7988 97.3395 26.5 97.277 26.1875C97.2184 25.8711 97.1872 25.5527 97.1833 25.2324V24.2422C97.1872 23.9258 97.2145 23.6113 97.2653 23.2988C97.32 22.9824 97.402 22.6797 97.5114 22.3906C97.6208 22.1016 97.7575 21.834 97.9216 21.5879C98.0856 21.3379 98.2829 21.1211 98.5134 20.9375C98.7399 20.7578 98.9977 20.6152 99.2868 20.5098C99.5759 20.4043 99.9001 20.3516 100.259 20.3516C100.658 20.3516 101.025 20.4141 101.361 20.5391C101.697 20.6602 101.99 20.834 102.24 21.0605C102.49 21.291 102.691 21.5684 102.843 21.8926C102.996 22.2129 103.09 22.5723 103.125 22.9707H102.052C102.009 22.7246 101.943 22.498 101.853 22.291C101.763 22.0801 101.646 21.9004 101.502 21.752C101.353 21.6035 101.177 21.4883 100.974 21.4062C100.771 21.3203 100.535 21.2773 100.265 21.2773C100.007 21.2773 99.779 21.3223 99.5798 21.4121C99.3805 21.498 99.2067 21.6152 99.0583 21.7637C98.9098 21.9121 98.7868 22.0859 98.6891 22.2852C98.5915 22.4805 98.5114 22.6875 98.4489 22.9062C98.3864 23.125 98.3415 23.3477 98.3141 23.5742C98.2868 23.8008 98.2731 24.0195 98.2731 24.2305V25.2324C98.277 25.4473 98.2946 25.6699 98.3259 25.9004C98.361 26.127 98.4137 26.3496 98.4841 26.5684C98.5544 26.7871 98.6442 26.9941 98.7536 27.1895C98.863 27.3848 98.9958 27.5566 99.152 27.7051C99.3044 27.8535 99.4821 27.9727 99.6852 28.0625C99.8884 28.1484 100.119 28.1934 100.377 28.1973C100.525 28.2012 100.679 28.1953 100.84 28.1797C101.004 28.1641 101.162 28.1328 101.314 28.0859C101.466 28.0391 101.609 27.9766 101.742 27.8984C101.875 27.8164 101.986 27.7109 102.076 27.582L102.088 25.666H100.353V24.752H103.119L103.136 27.8809ZM104.944 20.4688H110.1V21.4121H108.055V28.0625H110.1V29H104.944V28.0625H106.942V21.4121H104.944V20.4688ZM116.736 26.8438C116.736 26.582 116.675 26.3613 116.554 26.1816C116.437 26.002 116.285 25.8496 116.097 25.7246C115.91 25.6035 115.703 25.502 115.476 25.4199C115.253 25.3379 115.039 25.2637 114.831 25.1973C114.531 25.0996 114.224 24.9824 113.912 24.8457C113.603 24.7051 113.322 24.5371 113.068 24.3418C112.81 24.1426 112.599 23.9082 112.435 23.6387C112.275 23.3652 112.195 23.0449 112.195 22.6777C112.195 22.3105 112.275 21.9824 112.435 21.6934C112.599 21.4043 112.812 21.1602 113.074 20.9609C113.335 20.7617 113.632 20.6113 113.964 20.5098C114.296 20.4043 114.63 20.3516 114.966 20.3516C115.337 20.3516 115.695 20.4141 116.039 20.5391C116.382 20.6602 116.687 20.832 116.953 21.0547C117.218 21.2773 117.431 21.5469 117.591 21.8633C117.751 22.1797 117.835 22.5332 117.843 22.9238H116.73C116.699 22.6777 116.638 22.4551 116.548 22.2559C116.458 22.0527 116.339 21.8789 116.191 21.7344C116.042 21.5898 115.865 21.4785 115.658 21.4004C115.455 21.3184 115.224 21.2773 114.966 21.2773C114.759 21.2773 114.556 21.3066 114.357 21.3652C114.162 21.4238 113.988 21.5117 113.835 21.6289C113.679 21.7461 113.554 21.8906 113.46 22.0625C113.371 22.2344 113.326 22.4336 113.326 22.6602C113.33 22.9062 113.392 23.1152 113.513 23.2871C113.634 23.4551 113.789 23.5977 113.976 23.7148C114.16 23.832 114.359 23.9297 114.574 24.0078C114.792 24.0859 114.997 24.1543 115.189 24.2129C115.505 24.3105 115.822 24.4297 116.138 24.5703C116.455 24.707 116.744 24.8828 117.005 25.0977C117.263 25.2969 117.47 25.541 117.626 25.8301C117.787 26.1191 117.867 26.4531 117.867 26.832C117.867 27.2148 117.781 27.5488 117.609 27.834C117.441 28.1191 117.222 28.3555 116.953 28.543C116.683 28.7344 116.378 28.8789 116.039 28.9766C115.699 29.0703 115.359 29.1172 115.019 29.1172C114.613 29.1172 114.212 29.0488 113.818 28.9121C113.427 28.7754 113.087 28.5781 112.798 28.3203C112.54 28.0977 112.335 27.8379 112.183 27.541C112.035 27.2402 111.955 26.9062 111.943 26.5391H113.05C113.085 26.8047 113.158 27.041 113.267 27.248C113.376 27.4512 113.517 27.623 113.689 27.7637C113.861 27.9082 114.058 28.0176 114.281 28.0918C114.507 28.1621 114.753 28.1973 115.019 28.1973C115.23 28.1973 115.437 28.1719 115.64 28.1211C115.847 28.0664 116.031 27.9824 116.191 27.8691C116.351 27.7598 116.482 27.6211 116.583 27.4531C116.685 27.2812 116.736 27.0781 116.736 26.8438ZM125.352 21.3945H122.715V29H121.66V21.3945H119.024V20.4688H125.352V21.3945ZM129.749 25.5195H128.044V29H126.966V20.4688H129.468C129.866 20.4766 130.241 20.5332 130.593 20.6387C130.945 20.7441 131.253 20.9023 131.519 21.1133C131.78 21.3242 131.986 21.5898 132.134 21.9102C132.286 22.2266 132.363 22.5996 132.363 23.0293C132.363 23.3066 132.321 23.5605 132.239 23.791C132.161 24.0215 132.052 24.2305 131.911 24.418C131.771 24.6055 131.603 24.7715 131.407 24.916C131.212 25.0605 130.997 25.1836 130.763 25.2852L132.573 28.9297L132.568 29H131.425L129.749 25.5195ZM128.044 24.6289H129.497C129.739 24.625 129.968 24.5879 130.183 24.5176C130.398 24.4434 130.587 24.3379 130.751 24.2012C130.911 24.0645 131.038 23.8984 131.132 23.7031C131.226 23.5039 131.273 23.2754 131.273 23.0176C131.273 22.7441 131.228 22.5059 131.138 22.3027C131.048 22.0957 130.923 21.9219 130.763 21.7812C130.603 21.6445 130.411 21.541 130.189 21.4707C129.97 21.4004 129.73 21.3633 129.468 21.3594H128.044V24.6289ZM136.766 24.752L138.711 20.4688H139.941L137.287 25.8184L137.27 29H136.262L136.244 25.8184L133.59 20.4688H134.826L136.766 24.752ZM150.336 29.7324H149.363L152.926 20.4688H153.892L150.336 29.7324ZM21.4844 42.8438C21.4844 42.582 21.4238 42.3613 21.3027 42.1816C21.1855 42.002 21.0332 41.8496 20.8457 41.7246C20.6582 41.6035 20.4512 41.502 20.2246 41.4199C20.002 41.3379 19.7871 41.2637 19.5801 41.1973C19.2793 41.0996 18.9727 40.9824 18.6602 40.8457C18.3516 40.7051 18.0703 40.5371 17.8164 40.3418C17.5586 40.1426 17.3477 39.9082 17.1836 39.6387C17.0234 39.3652 16.9434 39.0449 16.9434 38.6777C16.9434 38.3105 17.0234 37.9824 17.1836 37.6934C17.3477 37.4043 17.5605 37.1602 17.8223 36.9609C18.084 36.7617 18.3809 36.6113 18.7129 36.5098C19.0449 36.4043 19.3789 36.3516 19.7148 36.3516C20.0859 36.3516 20.4434 36.4141 20.7871 36.5391C21.1309 36.6602 21.4355 36.832 21.7012 37.0547C21.9668 37.2773 22.1797 37.5469 22.3398 37.8633C22.5 38.1797 22.584 38.5332 22.5918 38.9238H21.4785C21.4473 38.6777 21.3867 38.4551 21.2969 38.2559C21.207 38.0527 21.0879 37.8789 20.9395 37.7344C20.791 37.5898 20.6133 37.4785 20.4062 37.4004C20.2031 37.3184 19.9727 37.2773 19.7148 37.2773C19.5078 37.2773 19.3047 37.3066 19.1055 37.3652C18.9102 37.4238 18.7363 37.5117 18.584 37.6289C18.4277 37.7461 18.3027 37.8906 18.209 38.0625C18.1191 38.2344 18.0742 38.4336 18.0742 38.6602C18.0781 38.9062 18.1406 39.1152 18.2617 39.2871C18.3828 39.4551 18.5371 39.5977 18.7246 39.7148C18.9082 39.832 19.1074 39.9297 19.3223 40.0078C19.541 40.0859 19.7461 40.1543 19.9375 40.2129C20.2539 40.3105 20.5703 40.4297 20.8867 40.5703C21.2031 40.707 21.4922 40.8828 21.7539 41.0977C22.0117 41.2969 22.2188 41.541 22.375 41.8301C22.5352 42.1191 22.6152 42.4531 22.6152 42.832C22.6152 43.2148 22.5293 43.5488 22.3574 43.834C22.1895 44.1191 21.9707 44.3555 21.7012 44.543C21.4316 44.7344 21.127 44.8789 20.7871 44.9766C20.4473 45.0703 20.1074 45.1172 19.7676 45.1172C19.3613 45.1172 18.9609 45.0488 18.5664 44.9121C18.1758 44.7754 17.8359 44.5781 17.5469 44.3203C17.2891 44.0977 17.084 43.8379 16.9316 43.541C16.7832 43.2402 16.7031 42.9062 16.6914 42.5391H17.7988C17.834 42.8047 17.9062 43.041 18.0156 43.248C18.125 43.4512 18.2656 43.623 18.4375 43.7637C18.6094 43.9082 18.8066 44.0176 19.0293 44.0918C19.2559 44.1621 19.502 44.1973 19.7676 44.1973C19.9785 44.1973 20.1855 44.1719 20.3887 44.1211C20.5957 44.0664 20.7793 43.9824 20.9395 43.8691C21.0996 43.7598 21.2305 43.6211 21.332 43.4531C21.4336 43.2812 21.4844 43.0781 21.4844 42.8438ZM30.1005 37.3945H27.4637V45H26.4091V37.3945H23.7723V36.4688H30.1005V37.3945ZM34.4978 41.5195H32.7927V45H31.7146V36.4688H34.2166C34.615 36.4766 34.99 36.5332 35.3416 36.6387C35.6931 36.7441 36.0017 36.9023 36.2673 37.1133C36.5291 37.3242 36.7341 37.5898 36.8826 37.9102C37.0349 38.2266 37.1111 38.5996 37.1111 39.0293C37.1111 39.3066 37.0701 39.5605 36.988 39.791C36.9099 40.0215 36.8005 40.2305 36.6599 40.418C36.5193 40.6055 36.3513 40.7715 36.156 40.916C35.9607 41.0605 35.7459 41.1836 35.5115 41.2852L37.322 44.9297L37.3162 45H36.1736L34.4978 41.5195ZM32.7927 40.6289H34.2459C34.488 40.625 34.7166 40.5879 34.9314 40.5176C35.1462 40.4434 35.3357 40.3379 35.4998 40.2012C35.6599 40.0645 35.7869 39.8984 35.8806 39.7031C35.9744 39.5039 36.0212 39.2754 36.0212 39.0176C36.0212 38.7441 35.9763 38.5059 35.8865 38.3027C35.7966 38.0957 35.6716 37.9219 35.5115 37.7812C35.3513 37.6445 35.1599 37.541 34.9373 37.4707C34.7185 37.4004 34.4783 37.3633 34.2166 37.3594H32.7927V40.6289ZM44.3561 36.4688L44.3678 42.2461C44.3678 42.6445 44.2975 43.0176 44.1569 43.3652C44.0163 43.7129 43.8229 44.0156 43.5768 44.2734C43.3307 44.5352 43.0377 44.7422 42.6979 44.8945C42.358 45.043 41.985 45.1172 41.5788 45.1172C41.1647 45.1172 40.7877 45.043 40.4479 44.8945C40.108 44.7461 39.817 44.541 39.5748 44.2793C39.3327 44.0215 39.1432 43.7188 39.0065 43.3711C38.8698 43.0195 38.7995 42.6445 38.7955 42.2461L38.8073 36.4688H39.8385L39.862 42.2461C39.8659 42.5 39.9049 42.7441 39.9791 42.9785C40.0573 43.2129 40.1686 43.4199 40.3131 43.5996C40.4538 43.7793 40.6295 43.9238 40.8405 44.0332C41.0553 44.1426 41.3014 44.1973 41.5788 44.1973C41.8561 44.1973 42.1002 44.1445 42.3112 44.0391C42.5221 43.9297 42.6998 43.7832 42.8444 43.5996C42.985 43.4199 43.0924 43.2129 43.1666 42.9785C43.2409 42.7441 43.2819 42.5 43.2897 42.2461L43.3073 36.4688H44.3561ZM51.853 42.4336C51.8023 42.8281 51.7007 43.1914 51.5484 43.5234C51.396 43.8516 51.1987 44.1328 50.9566 44.3672C50.7105 44.6055 50.4195 44.791 50.0835 44.9238C49.7515 45.0527 49.3804 45.1172 48.9702 45.1172C48.6187 45.1172 48.2984 45.0684 48.0093 44.9707C47.7241 44.8691 47.4702 44.7305 47.2476 44.5547C47.021 44.3789 46.8257 44.1719 46.6616 43.9336C46.5015 43.6953 46.3687 43.4355 46.2632 43.1543C46.1538 42.873 46.0718 42.5781 46.0171 42.2695C45.9663 41.9609 45.939 41.6484 45.9351 41.332V40.1426C45.939 39.8262 45.9663 39.5137 46.0171 39.2051C46.0718 38.8965 46.1538 38.6016 46.2632 38.3203C46.3687 38.0391 46.5015 37.7793 46.6616 37.541C46.8257 37.2988 47.021 37.0898 47.2476 36.9141C47.4702 36.7383 47.7241 36.6016 48.0093 36.5039C48.2945 36.4023 48.6148 36.3516 48.9702 36.3516C49.396 36.3516 49.7769 36.418 50.1128 36.5508C50.4487 36.6797 50.7378 36.8633 50.98 37.1016C51.2222 37.3438 51.4155 37.6328 51.5601 37.9688C51.7085 38.3047 51.8062 38.6758 51.853 39.082H50.7691C50.7339 38.8242 50.6734 38.584 50.5874 38.3613C50.5015 38.1387 50.3862 37.9434 50.2417 37.7754C50.0972 37.6074 49.9195 37.4766 49.7085 37.3828C49.5015 37.2852 49.2554 37.2363 48.9702 37.2363C48.7124 37.2363 48.4839 37.2793 48.2847 37.3652C48.0894 37.4473 47.9214 37.5605 47.7808 37.7051C47.6362 37.8496 47.5152 38.0176 47.4175 38.209C47.3237 38.4004 47.2476 38.6035 47.189 38.8184C47.1304 39.0332 47.0874 39.2539 47.0601 39.4805C47.0366 39.7031 47.0249 39.9199 47.0249 40.1309V41.332C47.0249 41.543 47.0366 41.7617 47.0601 41.9883C47.0874 42.2109 47.1304 42.4297 47.189 42.6445C47.2476 42.8633 47.3237 43.0684 47.4175 43.2598C47.5112 43.4512 47.6304 43.6191 47.7749 43.7637C47.9195 43.9121 48.0894 44.0293 48.2847 44.1152C48.48 44.1973 48.7085 44.2383 48.9702 44.2383C49.2554 44.2383 49.5015 44.1934 49.7085 44.1035C49.9195 44.0137 50.0972 43.8867 50.2417 43.7227C50.3862 43.5625 50.5015 43.373 50.5874 43.1543C50.6734 42.9316 50.7339 42.6914 50.7691 42.4336H51.853ZM59.4086 37.3945H56.7719V45H55.7172V37.3945H53.0805V36.4688H59.4086V37.3945ZM66.3372 36.4688L66.3489 42.2461C66.3489 42.6445 66.2786 43.0176 66.138 43.3652C65.9973 43.7129 65.804 44.0156 65.5579 44.2734C65.3118 44.5352 65.0188 44.7422 64.679 44.8945C64.3391 45.043 63.9661 45.1172 63.5598 45.1172C63.1458 45.1172 62.7688 45.043 62.429 44.8945C62.0891 44.7461 61.7981 44.541 61.5559 44.2793C61.3138 44.0215 61.1243 43.7188 60.9876 43.3711C60.8509 43.0195 60.7805 42.6445 60.7766 42.2461L60.7884 36.4688H61.8196L61.843 42.2461C61.847 42.5 61.886 42.7441 61.9602 42.9785C62.0384 43.2129 62.1497 43.4199 62.2942 43.5996C62.4348 43.7793 62.6106 43.9238 62.8216 44.0332C63.0364 44.1426 63.2825 44.1973 63.5598 44.1973C63.8372 44.1973 64.0813 44.1445 64.2923 44.0391C64.5032 43.9297 64.6809 43.7832 64.8255 43.5996C64.9661 43.4199 65.0735 43.2129 65.1477 42.9785C65.222 42.7441 65.263 42.5 65.2708 42.2461L65.2884 36.4688H66.3372ZM71.133 41.5195H69.4279V45H68.3498V36.4688H70.8517C71.2502 36.4766 71.6252 36.5332 71.9767 36.6387C72.3283 36.7441 72.6369 36.9023 72.9025 37.1133C73.1642 37.3242 73.3693 37.5898 73.5177 37.9102C73.6701 38.2266 73.7463 38.5996 73.7463 39.0293C73.7463 39.3066 73.7052 39.5605 73.6232 39.791C73.5451 40.0215 73.4357 40.2305 73.2951 40.418C73.1545 40.6055 72.9865 40.7715 72.7912 40.916C72.5959 41.0605 72.381 41.1836 72.1466 41.2852L73.9572 44.9297L73.9513 45H72.8088L71.133 41.5195ZM69.4279 40.6289H70.881C71.1232 40.625 71.3517 40.5879 71.5666 40.5176C71.7814 40.4434 71.9709 40.3379 72.1349 40.2012C72.2951 40.0645 72.422 39.8984 72.5158 39.7031C72.6095 39.5039 72.6564 39.2754 72.6564 39.0176C72.6564 38.7441 72.6115 38.5059 72.5216 38.3027C72.4318 38.0957 72.3068 37.9219 72.1466 37.7812C71.9865 37.6445 71.7951 37.541 71.5724 37.4707C71.3537 37.4004 71.1134 37.3633 70.8517 37.3594H69.4279V40.6289ZM80.3291 41.0566H76.7666V44.0801H80.9209V45H75.6827V36.4688H80.8682V37.3945H76.7666V40.1367H80.3291V41.0566ZM82.8515 45V36.4688H84.8261C85.1581 36.4727 85.4706 36.5078 85.7636 36.5742C86.0605 36.6367 86.3339 36.7266 86.5839 36.8438C86.9316 37.0039 87.2382 37.2148 87.5038 37.4766C87.7734 37.7344 87.9882 38.0332 88.1484 38.373C88.2929 38.6621 88.4023 38.9785 88.4765 39.3223C88.5546 39.666 88.5956 40.0332 88.5995 40.4238V41.0508C88.5995 41.4258 88.5624 41.7812 88.4882 42.1172C88.4179 42.4531 88.3144 42.7617 88.1777 43.043C88.037 43.3359 87.8593 43.6016 87.6445 43.8398C87.4296 44.0781 87.1894 44.2812 86.9238 44.4492C86.6425 44.625 86.3241 44.7598 85.9687 44.8535C85.6171 44.9473 85.2363 44.9961 84.8261 45H82.8515ZM83.953 37.3594V44.1152H84.8261C85.1386 44.1113 85.4218 44.0723 85.6757 43.998C85.9335 43.9238 86.162 43.8184 86.3613 43.6816C86.5722 43.541 86.7538 43.3691 86.9062 43.166C87.0624 42.959 87.1855 42.7285 87.2753 42.4746C87.3534 42.2676 87.412 42.0449 87.4511 41.8066C87.4902 41.5645 87.5116 41.3125 87.5155 41.0508V40.4121C87.5116 40.1465 87.4882 39.8926 87.4452 39.6504C87.4062 39.4043 87.3456 39.1758 87.2636 38.9648C87.1581 38.6914 87.0155 38.4453 86.8359 38.2266C86.6601 38.0039 86.4433 37.8242 86.1855 37.6875C86.0019 37.5859 85.7968 37.5078 85.5702 37.4531C85.3437 37.3945 85.0956 37.3633 84.8261 37.3594H83.953ZM97.5055 45V36.4688H99.4802C99.8122 36.4727 100.125 36.5078 100.418 36.5742C100.715 36.6367 100.988 36.7266 101.238 36.8438C101.586 37.0039 101.892 37.2148 102.158 37.4766C102.427 37.7344 102.642 38.0332 102.802 38.373C102.947 38.6621 103.056 38.9785 103.131 39.3223C103.209 39.666 103.25 40.0332 103.254 40.4238V41.0508C103.254 41.4258 103.216 41.7812 103.142 42.1172C103.072 42.4531 102.968 42.7617 102.832 43.043C102.691 43.3359 102.513 43.6016 102.299 43.8398C102.084 44.0781 101.843 44.2812 101.578 44.4492C101.297 44.625 100.978 44.7598 100.623 44.8535C100.271 44.9473 99.8903 44.9961 99.4802 45H97.5055ZM98.6071 37.3594V44.1152H99.4802C99.7927 44.1113 100.076 44.0723 100.33 43.998C100.588 43.9238 100.816 43.8184 101.015 43.6816C101.226 43.541 101.408 43.3691 101.56 43.166C101.716 42.959 101.84 42.7285 101.929 42.4746C102.007 42.2676 102.066 42.0449 102.105 41.8066C102.144 41.5645 102.166 41.3125 102.17 41.0508V40.4121C102.166 40.1465 102.142 39.8926 102.099 39.6504C102.06 39.4043 102 39.1758 101.918 38.9648C101.812 38.6914 101.67 38.4453 101.49 38.2266C101.314 38.0039 101.097 37.8242 100.84 37.6875C100.656 37.5859 100.451 37.5078 100.224 37.4531C99.9977 37.3945 99.7497 37.3633 99.4802 37.3594H98.6071ZM109.016 42.791H106.169L105.483 45H104.399L107.153 36.4688H108.061L110.768 45H109.69L109.016 42.791ZM106.461 41.8477H108.729L107.604 38.1445L106.461 41.8477ZM118.025 37.3945H115.388V45H114.333V37.3945H111.697V36.4688H118.025V37.3945ZM123.67 42.791H120.823L120.137 45H119.053L121.807 36.4688H122.715L125.422 45H124.344L123.67 42.791ZM121.116 41.8477H123.383L122.258 38.1445L121.116 41.8477ZM126.913 45V36.4688H129.45C129.802 36.4727 130.146 36.5195 130.482 36.6094C130.818 36.6953 131.116 36.8301 131.378 37.0137C131.64 37.1973 131.849 37.4316 132.005 37.7168C132.161 38.002 132.238 38.3438 132.234 38.7422C132.23 38.9648 132.193 39.168 132.122 39.3516C132.056 39.5352 131.964 39.6992 131.847 39.8438C131.726 39.9922 131.591 40.1172 131.443 40.2188C131.298 40.3203 131.122 40.416 130.915 40.5059V40.5234C131.13 40.5742 131.337 40.666 131.536 40.7988C131.736 40.9316 131.9 41.0781 132.029 41.2383C132.165 41.4141 132.271 41.6113 132.345 41.8301C132.423 42.0488 132.462 42.2852 132.462 42.5391C132.466 42.9375 132.39 43.2891 132.234 43.5938C132.077 43.8984 131.868 44.1523 131.607 44.3555C131.345 44.5625 131.042 44.7207 130.698 44.8301C130.359 44.9395 130.007 44.9961 129.644 45H126.913ZM128.003 41.0098V44.0801H129.673C129.9 44.0762 130.114 44.0391 130.318 43.9688C130.521 43.8945 130.7 43.793 130.857 43.6641C131.013 43.5352 131.136 43.377 131.226 43.1895C131.32 43.002 131.366 42.7891 131.366 42.5508C131.37 42.3086 131.329 42.0938 131.243 41.9062C131.161 41.7188 131.046 41.5586 130.898 41.4258C130.749 41.2969 130.575 41.1973 130.376 41.127C130.177 41.0566 129.962 41.0176 129.732 41.0098H128.003ZM128.003 40.1074H129.515C129.718 40.1035 129.917 40.0723 130.113 40.0137C130.308 39.9512 130.482 39.8613 130.634 39.7441C130.786 39.6309 130.909 39.4902 131.003 39.3223C131.097 39.1543 131.144 38.959 131.144 38.7363C131.144 38.498 131.097 38.2949 131.003 38.127C130.913 37.959 130.792 37.8203 130.64 37.7109C130.484 37.6055 130.304 37.5273 130.101 37.4766C129.902 37.4258 129.696 37.3984 129.486 37.3945H128.003V40.1074ZM138.324 42.791H135.477L134.791 45H133.707L136.461 36.4688H137.369L140.076 45H138.998L138.324 42.791ZM135.77 41.8477H138.037L136.912 38.1445L135.77 41.8477ZM146.044 42.8438C146.044 42.582 145.983 42.3613 145.862 42.1816C145.745 42.002 145.593 41.8496 145.405 41.7246C145.218 41.6035 145.011 41.502 144.784 41.4199C144.561 41.3379 144.347 41.2637 144.14 41.1973C143.839 41.0996 143.532 40.9824 143.22 40.8457C142.911 40.7051 142.63 40.5371 142.376 40.3418C142.118 40.1426 141.907 39.9082 141.743 39.6387C141.583 39.3652 141.503 39.0449 141.503 38.6777C141.503 38.3105 141.583 37.9824 141.743 37.6934C141.907 37.4043 142.12 37.1602 142.382 36.9609C142.644 36.7617 142.94 36.6113 143.272 36.5098C143.604 36.4043 143.938 36.3516 144.274 36.3516C144.645 36.3516 145.003 36.4141 145.347 36.5391C145.69 36.6602 145.995 36.832 146.261 37.0547C146.526 37.2773 146.739 37.5469 146.899 37.8633C147.06 38.1797 147.144 38.5332 147.151 38.9238H146.038C146.007 38.6777 145.946 38.4551 145.856 38.2559C145.767 38.0527 145.647 37.8789 145.499 37.7344C145.351 37.5898 145.173 37.4785 144.966 37.4004C144.763 37.3184 144.532 37.2773 144.274 37.2773C144.067 37.2773 143.864 37.3066 143.665 37.3652C143.47 37.4238 143.296 37.5117 143.144 37.6289C142.987 37.7461 142.862 37.8906 142.769 38.0625C142.679 38.2344 142.634 38.4336 142.634 38.6602C142.638 38.9062 142.7 39.1152 142.821 39.2871C142.942 39.4551 143.097 39.5977 143.284 39.7148C143.468 39.832 143.667 39.9297 143.882 40.0078C144.101 40.0859 144.306 40.1543 144.497 40.2129C144.813 40.3105 145.13 40.4297 145.446 40.5703C145.763 40.707 146.052 40.8828 146.313 41.0977C146.571 41.2969 146.778 41.541 146.935 41.8301C147.095 42.1191 147.175 42.4531 147.175 42.832C147.175 43.2148 147.089 43.5488 146.917 43.834C146.749 44.1191 146.53 44.3555 146.261 44.543C145.991 44.7344 145.686 44.8789 145.347 44.9766C145.007 45.0703 144.667 45.1172 144.327 45.1172C143.921 45.1172 143.52 45.0488 143.126 44.9121C142.735 44.7754 142.395 44.5781 142.106 44.3203C141.849 44.0977 141.644 43.8379 141.491 43.541C141.343 43.2402 141.263 42.9062 141.251 42.5391H142.358C142.394 42.8047 142.466 43.041 142.575 43.248C142.685 43.4512 142.825 43.623 142.997 43.7637C143.169 43.9082 143.366 44.0176 143.589 44.0918C143.815 44.1621 144.061 44.1973 144.327 44.1973C144.538 44.1973 144.745 44.1719 144.948 44.1211C145.155 44.0664 145.339 43.9824 145.499 43.8691C145.659 43.7598 145.79 43.6211 145.892 43.4531C145.993 43.2812 146.044 43.0781 146.044 42.8438ZM153.599 41.0566H150.037V44.0801H154.191V45H148.953V36.4688H154.139V37.3945H150.037V40.1367H153.599V41.0566ZM156.122 45V36.4688H158.096C158.428 36.4727 158.741 36.5078 159.034 36.5742C159.331 36.6367 159.604 36.7266 159.854 36.8438C160.202 37.0039 160.509 37.2148 160.774 37.4766C161.044 37.7344 161.259 38.0332 161.419 38.373C161.563 38.6621 161.673 38.9785 161.747 39.3223C161.825 39.666 161.866 40.0332 161.87 40.4238V41.0508C161.87 41.4258 161.833 41.7812 161.759 42.1172C161.688 42.4531 161.585 42.7617 161.448 43.043C161.307 43.3359 161.13 43.6016 160.915 43.8398C160.7 44.0781 160.46 44.2812 160.194 44.4492C159.913 44.625 159.594 44.7598 159.239 44.8535C158.887 44.9473 158.507 44.9961 158.096 45H156.122ZM157.223 37.3594V44.1152H158.096C158.409 44.1113 158.692 44.0723 158.946 43.998C159.204 43.9238 159.432 43.8184 159.632 43.6816C159.842 43.541 160.024 43.3691 160.176 43.166C160.333 42.959 160.456 42.7285 160.546 42.4746C160.624 42.2676 160.682 42.0449 160.721 41.8066C160.76 41.5645 160.782 41.3125 160.786 41.0508V40.4121C160.782 40.1465 160.759 39.8926 160.716 39.6504C160.676 39.4043 160.616 39.1758 160.534 38.9648C160.428 38.6914 160.286 38.4453 160.106 38.2266C159.93 38.0039 159.714 37.8242 159.456 37.6875C159.272 37.5859 159.067 37.5078 158.841 37.4531C158.614 37.3945 158.366 37.3633 158.096 37.3594H157.223Z" fill="#091315"/>
<rect y="94" width="209" height="78" rx="2" fill="#A0C8E9"/>
<path d="M22.5449 120.434C22.4941 120.828 22.3926 121.191 22.2402 121.523C22.0879 121.852 21.8906 122.133 21.6484 122.367C21.4023 122.605 21.1113 122.791 20.7754 122.924C20.4434 123.053 20.0723 123.117 19.6621 123.117C19.3105 123.117 18.9902 123.068 18.7012 122.971C18.416 122.869 18.1621 122.73 17.9395 122.555C17.7129 122.379 17.5176 122.172 17.3535 121.934C17.1934 121.695 17.0605 121.436 16.9551 121.154C16.8457 120.873 16.7637 120.578 16.709 120.27C16.6582 119.961 16.6309 119.648 16.627 119.332V118.143C16.6309 117.826 16.6582 117.514 16.709 117.205C16.7637 116.896 16.8457 116.602 16.9551 116.32C17.0605 116.039 17.1934 115.779 17.3535 115.541C17.5176 115.299 17.7129 115.09 17.9395 114.914C18.1621 114.738 18.416 114.602 18.7012 114.504C18.9863 114.402 19.3066 114.352 19.6621 114.352C20.0879 114.352 20.4688 114.418 20.8047 114.551C21.1406 114.68 21.4297 114.863 21.6719 115.102C21.9141 115.344 22.1074 115.633 22.252 115.969C22.4004 116.305 22.498 116.676 22.5449 117.082H21.4609C21.4258 116.824 21.3652 116.584 21.2793 116.361C21.1934 116.139 21.0781 115.943 20.9336 115.775C20.7891 115.607 20.6113 115.477 20.4004 115.383C20.1934 115.285 19.9473 115.236 19.6621 115.236C19.4043 115.236 19.1758 115.279 18.9766 115.365C18.7812 115.447 18.6133 115.561 18.4727 115.705C18.3281 115.85 18.207 116.018 18.1094 116.209C18.0156 116.4 17.9395 116.604 17.8809 116.818C17.8223 117.033 17.7793 117.254 17.752 117.48C17.7285 117.703 17.7168 117.92 17.7168 118.131V119.332C17.7168 119.543 17.7285 119.762 17.752 119.988C17.7793 120.211 17.8223 120.43 17.8809 120.645C17.9395 120.863 18.0156 121.068 18.1094 121.26C18.2031 121.451 18.3223 121.619 18.4668 121.764C18.6113 121.912 18.7812 122.029 18.9766 122.115C19.1719 122.197 19.4004 122.238 19.6621 122.238C19.9473 122.238 20.1934 122.193 20.4004 122.104C20.6113 122.014 20.7891 121.887 20.9336 121.723C21.0781 121.562 21.1934 121.373 21.2793 121.154C21.3652 120.932 21.4258 120.691 21.4609 120.434H22.5449ZM29.0927 119.232H25.5419V123H24.4462V114.469H29.6845V115.395H25.5419V118.312H29.0927V119.232ZM44.526 120.434C44.4752 120.828 44.3737 121.191 44.2213 121.523C44.069 121.852 43.8717 122.133 43.6295 122.367C43.3834 122.605 43.0924 122.791 42.7565 122.924C42.4245 123.053 42.0534 123.117 41.6432 123.117C41.2916 123.117 40.9713 123.068 40.6823 122.971C40.3971 122.869 40.1432 122.73 39.9205 122.555C39.694 122.379 39.4987 122.172 39.3346 121.934C39.1745 121.695 39.0416 121.436 38.9362 121.154C38.8268 120.873 38.7448 120.578 38.6901 120.27C38.6393 119.961 38.612 119.648 38.608 119.332V118.143C38.612 117.826 38.6393 117.514 38.6901 117.205C38.7448 116.896 38.8268 116.602 38.9362 116.32C39.0416 116.039 39.1745 115.779 39.3346 115.541C39.4987 115.299 39.694 115.09 39.9205 114.914C40.1432 114.738 40.3971 114.602 40.6823 114.504C40.9674 114.402 41.2877 114.352 41.6432 114.352C42.069 114.352 42.4498 114.418 42.7858 114.551C43.1217 114.68 43.4108 114.863 43.653 115.102C43.8952 115.344 44.0885 115.633 44.233 115.969C44.3815 116.305 44.4791 116.676 44.526 117.082H43.442C43.4069 116.824 43.3463 116.584 43.2604 116.361C43.1745 116.139 43.0592 115.943 42.9147 115.775C42.7702 115.607 42.5924 115.477 42.3815 115.383C42.1745 115.285 41.9284 115.236 41.6432 115.236C41.3854 115.236 41.1569 115.279 40.9577 115.365C40.7623 115.447 40.5944 115.561 40.4538 115.705C40.3092 115.85 40.1881 116.018 40.0905 116.209C39.9967 116.4 39.9205 116.604 39.862 116.818C39.8034 117.033 39.7604 117.254 39.733 117.48C39.7096 117.703 39.6979 117.92 39.6979 118.131V119.332C39.6979 119.543 39.7096 119.762 39.733 119.988C39.7604 120.211 39.8034 120.43 39.862 120.645C39.9205 120.863 39.9967 121.068 40.0905 121.26C40.1842 121.451 40.3034 121.619 40.4479 121.764C40.5924 121.912 40.7623 122.029 40.9577 122.115C41.153 122.197 41.3815 122.238 41.6432 122.238C41.9284 122.238 42.1745 122.193 42.3815 122.104C42.5924 122.014 42.7702 121.887 42.9147 121.723C43.0592 121.562 43.1745 121.373 43.2604 121.154C43.3463 120.932 43.4069 120.691 43.442 120.434H44.526ZM51.021 119.057H47.4585V122.08H51.6128V123H46.3745V114.469H51.5601V115.395H47.4585V118.137H51.021V119.057ZM58.9984 123H57.8969L54.5863 116.625L54.5687 123H53.473V114.469H54.5746L57.8852 120.832L57.9027 114.469H58.9984V123ZM66.7356 115.395H64.0989V123H63.0442V115.395H60.4075V114.469H66.7356V115.395ZM71.133 119.52H69.4279V123H68.3498V114.469H70.8517C71.2502 114.477 71.6252 114.533 71.9767 114.639C72.3283 114.744 72.6369 114.902 72.9025 115.113C73.1642 115.324 73.3693 115.59 73.5177 115.91C73.6701 116.227 73.7463 116.6 73.7463 117.029C73.7463 117.307 73.7052 117.561 73.6232 117.791C73.5451 118.021 73.4357 118.23 73.2951 118.418C73.1545 118.605 72.9865 118.771 72.7912 118.916C72.5959 119.061 72.381 119.184 72.1466 119.285L73.9572 122.93L73.9513 123H72.8088L71.133 119.52ZM69.4279 118.629H70.881C71.1232 118.625 71.3517 118.588 71.5666 118.518C71.7814 118.443 71.9709 118.338 72.1349 118.201C72.2951 118.064 72.422 117.898 72.5158 117.703C72.6095 117.504 72.6564 117.275 72.6564 117.018C72.6564 116.744 72.6115 116.506 72.5216 116.303C72.4318 116.096 72.3068 115.922 72.1466 115.781C71.9865 115.645 71.7951 115.541 71.5724 115.471C71.3537 115.4 71.1134 115.363 70.8517 115.359H69.4279V118.629ZM80.3291 119.057H76.7666V122.08H80.9209V123H75.6827V114.469H80.8682V115.395H76.7666V118.137H80.3291V119.057Z" fill="#091315"/>
<rect x="530" width="209" height="172" rx="2" fill="#99D9E4"/>
<path d="M551.484 26.8438C551.484 26.582 551.424 26.3613 551.303 26.1816C551.186 26.002 551.033 25.8496 550.846 25.7246C550.658 25.6035 550.451 25.502 550.225 25.4199C550.002 25.3379 549.787 25.2637 549.58 25.1973C549.279 25.0996 548.973 24.9824 548.66 24.8457C548.352 24.7051 548.07 24.5371 547.816 24.3418C547.559 24.1426 547.348 23.9082 547.184 23.6387C547.023 23.3652 546.943 23.0449 546.943 22.6777C546.943 22.3105 547.023 21.9824 547.184 21.6934C547.348 21.4043 547.561 21.1602 547.822 20.9609C548.084 20.7617 548.381 20.6113 548.713 20.5098C549.045 20.4043 549.379 20.3516 549.715 20.3516C550.086 20.3516 550.443 20.4141 550.787 20.5391C551.131 20.6602 551.436 20.832 551.701 21.0547C551.967 21.2773 552.18 21.5469 552.34 21.8633C552.5 22.1797 552.584 22.5332 552.592 22.9238H551.479C551.447 22.6777 551.387 22.4551 551.297 22.2559C551.207 22.0527 551.088 21.8789 550.939 21.7344C550.791 21.5898 550.613 21.4785 550.406 21.4004C550.203 21.3184 549.973 21.2773 549.715 21.2773C549.508 21.2773 549.305 21.3066 549.105 21.3652C548.91 21.4238 548.736 21.5117 548.584 21.6289C548.428 21.7461 548.303 21.8906 548.209 22.0625C548.119 22.2344 548.074 22.4336 548.074 22.6602C548.078 22.9062 548.141 23.1152 548.262 23.2871C548.383 23.4551 548.537 23.5977 548.725 23.7148C548.908 23.832 549.107 23.9297 549.322 24.0078C549.541 24.0859 549.746 24.1543 549.938 24.2129C550.254 24.3105 550.57 24.4297 550.887 24.5703C551.203 24.707 551.492 24.8828 551.754 25.0977C552.012 25.2969 552.219 25.541 552.375 25.8301C552.535 26.1191 552.615 26.4531 552.615 26.832C552.615 27.2148 552.529 27.5488 552.357 27.834C552.189 28.1191 551.971 28.3555 551.701 28.543C551.432 28.7344 551.127 28.8789 550.787 28.9766C550.447 29.0703 550.107 29.1172 549.768 29.1172C549.361 29.1172 548.961 29.0488 548.566 28.9121C548.176 28.7754 547.836 28.5781 547.547 28.3203C547.289 28.0977 547.084 27.8379 546.932 27.541C546.783 27.2402 546.703 26.9062 546.691 26.5391H547.799C547.834 26.8047 547.906 27.041 548.016 27.248C548.125 27.4512 548.266 27.623 548.438 27.7637C548.609 27.9082 548.807 28.0176 549.029 28.0918C549.256 28.1621 549.502 28.1973 549.768 28.1973C549.979 28.1973 550.186 28.1719 550.389 28.1211C550.596 28.0664 550.779 27.9824 550.939 27.8691C551.1 27.7598 551.23 27.6211 551.332 27.4531C551.434 27.2812 551.484 27.0781 551.484 26.8438ZM559.04 25.0566H555.477V28.0801H559.632V29H554.393V20.4688H559.579V21.3945H555.477V24.1367H559.04V25.0566ZM564.498 25.5195H562.793V29H561.715V20.4688H564.217C564.615 20.4766 564.99 20.5332 565.342 20.6387C565.693 20.7441 566.002 20.9023 566.267 21.1133C566.529 21.3242 566.734 21.5898 566.883 21.9102C567.035 22.2266 567.111 22.5996 567.111 23.0293C567.111 23.3066 567.07 23.5605 566.988 23.791C566.91 24.0215 566.801 24.2305 566.66 24.418C566.519 24.6055 566.351 24.7715 566.156 24.916C565.961 25.0605 565.746 25.1836 565.511 25.2852L567.322 28.9297L567.316 29H566.174L564.498 25.5195ZM562.793 24.6289H564.246C564.488 24.625 564.717 24.5879 564.931 24.5176C565.146 24.4434 565.336 24.3379 565.5 24.2012C565.66 24.0645 565.787 23.8984 565.881 23.7031C565.974 23.5039 566.021 23.2754 566.021 23.0176C566.021 22.7441 565.976 22.5059 565.886 22.3027C565.797 22.0957 565.672 21.9219 565.511 21.7812C565.351 21.6445 565.16 21.541 564.937 21.4707C564.719 21.4004 564.478 21.3633 564.217 21.3594H562.793V24.6289ZM571.092 29L568.397 20.4688H569.557L571.432 26.8379L571.555 27.2539L571.684 26.8262L573.571 20.4688H574.725L572.036 29H571.092ZM581.021 25.0566H577.459V28.0801H581.613V29H576.375V20.4688H581.56V21.3945H577.459V24.1367H581.021V25.0566ZM586.479 25.5195H584.774V29H583.696V20.4688H586.198C586.596 20.4766 586.971 20.5332 587.323 20.6387C587.674 20.7441 587.983 20.9023 588.248 21.1133C588.51 21.3242 588.715 21.5898 588.864 21.9102C589.016 22.2266 589.092 22.5996 589.092 23.0293C589.092 23.3066 589.051 23.5605 588.969 23.791C588.891 24.0215 588.782 24.2305 588.641 24.418C588.5 24.6055 588.332 24.7715 588.137 24.916C587.942 25.0605 587.727 25.1836 587.493 25.2852L589.303 28.9297L589.297 29H588.155L586.479 25.5195ZM584.774 24.6289H586.227C586.469 24.625 586.698 24.5879 586.912 24.5176C587.127 24.4434 587.317 24.3379 587.481 24.2012C587.641 24.0645 587.768 23.8984 587.862 23.7031C587.955 23.5039 588.002 23.2754 588.002 23.0176C588.002 22.7441 587.957 22.5059 587.868 22.3027C587.778 22.0957 587.653 21.9219 587.493 21.7812C587.332 21.6445 587.141 21.541 586.918 21.4707C586.7 21.4004 586.459 21.3633 586.198 21.3594H584.774V24.6289Z" fill="#091315"/>
<rect x="265" y="94" width="209" height="78" rx="24" fill="#FCC5C5"/>
<path d="M281.908 123V114.469H283.883C284.215 114.473 284.527 114.508 284.82 114.574C285.117 114.637 285.391 114.727 285.641 114.844C285.988 115.004 286.295 115.215 286.561 115.477C286.83 115.734 287.045 116.033 287.205 116.373C287.35 116.662 287.459 116.979 287.533 117.322C287.611 117.666 287.652 118.033 287.656 118.424V119.051C287.656 119.426 287.619 119.781 287.545 120.117C287.475 120.453 287.371 120.762 287.234 121.043C287.094 121.336 286.916 121.602 286.701 121.84C286.486 122.078 286.246 122.281 285.98 122.449C285.699 122.625 285.381 122.76 285.025 122.854C284.674 122.947 284.293 122.996 283.883 123H281.908ZM283.01 115.359V122.115H283.883C284.195 122.111 284.479 122.072 284.732 121.998C284.99 121.924 285.219 121.818 285.418 121.682C285.629 121.541 285.811 121.369 285.963 121.166C286.119 120.959 286.242 120.729 286.332 120.475C286.41 120.268 286.469 120.045 286.508 119.807C286.547 119.564 286.568 119.312 286.572 119.051V118.412C286.568 118.146 286.545 117.893 286.502 117.65C286.463 117.404 286.402 117.176 286.32 116.965C286.215 116.691 286.072 116.445 285.893 116.227C285.717 116.004 285.5 115.824 285.242 115.688C285.059 115.586 284.854 115.508 284.627 115.453C284.4 115.395 284.152 115.363 283.883 115.359H283.01ZM293.419 120.791H290.571L289.886 123H288.802L291.556 114.469H292.464L295.171 123H294.093L293.419 120.791ZM290.864 119.848H293.132L292.007 116.145L290.864 119.848ZM302.427 115.395H299.791V123H298.736V115.395H296.099V114.469H302.427V115.395ZM308.073 120.791H305.225L304.54 123H303.456L306.21 114.469H307.118L309.825 123H308.747L308.073 120.791ZM305.518 119.848H307.786L306.661 116.145L305.518 119.848ZM316.068 119.713H311.585V118.822H316.068V119.713ZM323.348 119.057H319.786V122.08H323.94V123H318.702V114.469H323.887V115.395H319.786V118.137H323.348V119.057ZM331.325 123H330.224L326.913 116.625L326.896 123H325.8V114.469H326.902L330.212 120.832L330.23 114.469H331.325V123ZM339.063 115.395H336.426V123H335.371V115.395H332.735V114.469H339.063V115.395ZM343.46 119.52H341.755V123H340.677V114.469H343.179C343.577 114.477 343.952 114.533 344.304 114.639C344.655 114.744 344.964 114.902 345.23 115.113C345.491 115.324 345.696 115.59 345.845 115.91C345.997 116.227 346.073 116.6 346.073 117.029C346.073 117.307 346.032 117.561 345.95 117.791C345.872 118.021 345.763 118.23 345.622 118.418C345.481 118.605 345.314 118.771 345.118 118.916C344.923 119.061 344.708 119.184 344.474 119.285L346.284 122.93L346.278 123H345.136L343.46 119.52ZM341.755 118.629H343.208C343.45 118.625 343.679 118.588 343.894 118.518C344.108 118.443 344.298 118.338 344.462 118.201C344.622 118.064 344.749 117.898 344.843 117.703C344.937 117.504 344.983 117.275 344.983 117.018C344.983 116.744 344.939 116.506 344.849 116.303C344.759 116.096 344.634 115.922 344.474 115.781C344.314 115.645 344.122 115.541 343.899 115.471C343.681 115.4 343.44 115.363 343.179 115.359H341.755V118.629ZM350.476 118.752L352.422 114.469H353.652L350.998 119.818L350.98 123H349.973L349.955 119.818L347.301 114.469H348.537L350.476 118.752ZM367.082 120.844C367.082 120.582 367.021 120.361 366.9 120.182C366.783 120.002 366.631 119.85 366.443 119.725C366.256 119.604 366.049 119.502 365.822 119.42C365.599 119.338 365.384 119.264 365.177 119.197C364.877 119.1 364.57 118.982 364.257 118.846C363.949 118.705 363.668 118.537 363.414 118.342C363.156 118.143 362.945 117.908 362.781 117.639C362.621 117.365 362.541 117.045 362.541 116.678C362.541 116.311 362.621 115.982 362.781 115.693C362.945 115.404 363.158 115.16 363.42 114.961C363.681 114.762 363.978 114.611 364.31 114.51C364.642 114.404 364.976 114.352 365.312 114.352C365.683 114.352 366.041 114.414 366.384 114.539C366.728 114.66 367.033 114.832 367.299 115.055C367.564 115.277 367.777 115.547 367.937 115.863C368.097 116.18 368.181 116.533 368.189 116.924H367.076C367.045 116.678 366.984 116.455 366.894 116.256C366.804 116.053 366.685 115.879 366.537 115.734C366.388 115.59 366.211 115.479 366.004 115.4C365.8 115.318 365.57 115.277 365.312 115.277C365.105 115.277 364.902 115.307 364.703 115.365C364.507 115.424 364.334 115.512 364.181 115.629C364.025 115.746 363.9 115.891 363.806 116.062C363.716 116.234 363.672 116.434 363.672 116.66C363.675 116.906 363.738 117.115 363.859 117.287C363.98 117.455 364.134 117.598 364.322 117.715C364.506 117.832 364.705 117.93 364.92 118.008C365.138 118.086 365.343 118.154 365.535 118.213C365.851 118.311 366.168 118.43 366.484 118.57C366.8 118.707 367.09 118.883 367.351 119.098C367.609 119.297 367.816 119.541 367.972 119.83C368.132 120.119 368.213 120.453 368.213 120.832C368.213 121.215 368.127 121.549 367.955 121.834C367.787 122.119 367.568 122.355 367.299 122.543C367.029 122.734 366.724 122.879 366.384 122.977C366.045 123.07 365.705 123.117 365.365 123.117C364.959 123.117 364.558 123.049 364.164 122.912C363.773 122.775 363.433 122.578 363.144 122.32C362.886 122.098 362.681 121.838 362.529 121.541C362.381 121.24 362.3 120.906 362.289 120.539H363.396C363.431 120.805 363.504 121.041 363.613 121.248C363.722 121.451 363.863 121.623 364.035 121.764C364.207 121.908 364.404 122.018 364.627 122.092C364.853 122.162 365.099 122.197 365.365 122.197C365.576 122.197 365.783 122.172 365.986 122.121C366.193 122.066 366.377 121.982 366.537 121.869C366.697 121.76 366.828 121.621 366.929 121.453C367.031 121.281 367.082 121.078 367.082 120.844ZM375.493 119.227C375.489 119.531 375.461 119.84 375.411 120.152C375.364 120.461 375.29 120.76 375.188 121.049C375.086 121.338 374.956 121.607 374.795 121.857C374.639 122.107 374.452 122.326 374.233 122.514C374.014 122.701 373.762 122.85 373.477 122.959C373.196 123.064 372.879 123.117 372.528 123.117C372.176 123.117 371.858 123.064 371.573 122.959C371.292 122.85 371.042 122.701 370.823 122.514C370.604 122.326 370.415 122.107 370.254 121.857C370.094 121.604 369.963 121.332 369.862 121.043C369.756 120.754 369.678 120.455 369.628 120.146C369.577 119.838 369.549 119.531 369.545 119.227V118.254C369.549 117.949 369.575 117.643 369.622 117.334C369.672 117.021 369.751 116.721 369.856 116.432C369.958 116.143 370.086 115.873 370.243 115.623C370.403 115.369 370.592 115.146 370.811 114.955C371.03 114.768 371.28 114.621 371.561 114.516C371.846 114.406 372.165 114.352 372.516 114.352C372.868 114.352 373.186 114.406 373.471 114.516C373.756 114.621 374.008 114.768 374.227 114.955C374.446 115.143 374.633 115.363 374.79 115.617C374.95 115.867 375.083 116.137 375.188 116.426C375.29 116.715 375.364 117.016 375.411 117.328C375.461 117.641 375.489 117.949 375.493 118.254V119.227ZM374.42 118.242C374.417 118.039 374.403 117.828 374.379 117.609C374.356 117.387 374.317 117.166 374.262 116.947C374.204 116.732 374.128 116.527 374.034 116.332C373.94 116.133 373.823 115.957 373.682 115.805C373.542 115.656 373.376 115.539 373.184 115.453C372.993 115.363 372.77 115.318 372.516 115.318C372.266 115.318 372.045 115.363 371.854 115.453C371.663 115.543 371.497 115.662 371.356 115.811C371.215 115.963 371.098 116.139 371.004 116.338C370.911 116.533 370.836 116.738 370.782 116.953C370.723 117.172 370.68 117.393 370.653 117.615C370.629 117.834 370.616 118.043 370.612 118.242V119.227C370.616 119.426 370.629 119.637 370.653 119.859C370.68 120.082 370.723 120.301 370.782 120.516C370.84 120.734 370.917 120.943 371.01 121.143C371.104 121.342 371.221 121.516 371.362 121.664C371.503 121.816 371.669 121.938 371.86 122.027C372.051 122.117 372.274 122.162 372.528 122.162C372.782 122.162 373.004 122.117 373.196 122.027C373.391 121.938 373.559 121.816 373.7 121.664C373.836 121.516 373.95 121.344 374.04 121.148C374.133 120.949 374.21 120.74 374.268 120.521C374.323 120.307 374.36 120.088 374.379 119.865C374.403 119.643 374.417 119.43 374.42 119.227V118.242ZM382.017 119.232H378.466V123H377.371V114.469H382.609V115.395H378.466V118.312H382.017V119.232ZM390.352 115.395H387.715V123H386.66V115.395H384.024V114.469H390.352V115.395ZM392.37 123L391.333 114.469H392.364L392.98 120.352L393.015 120.691L393.079 120.34L394.111 114.469H395.054L396.091 120.346L396.155 120.691L396.191 120.34L396.806 114.469H397.831L396.794 123H395.687L394.65 116.93L394.591 116.572L394.527 116.936L393.484 123H392.37ZM403.324 120.791H400.477L399.791 123H398.707L401.461 114.469H402.369L405.076 123H403.998L403.324 120.791ZM400.77 119.848H403.037L401.912 116.145L400.77 119.848ZM409.403 119.52H407.698V123H406.62V114.469H409.122C409.52 114.477 409.895 114.533 410.247 114.639C410.599 114.744 410.907 114.902 411.173 115.113C411.435 115.324 411.64 115.59 411.788 115.91C411.94 116.227 412.017 116.6 412.017 117.029C412.017 117.307 411.976 117.561 411.894 117.791C411.815 118.021 411.706 118.23 411.565 118.418C411.425 118.605 411.257 118.771 411.061 118.916C410.866 119.061 410.651 119.184 410.417 119.285L412.228 122.93L412.222 123H411.079L409.403 119.52ZM407.698 118.629H409.151C409.394 118.625 409.622 118.588 409.837 118.518C410.052 118.443 410.241 118.338 410.405 118.201C410.565 118.064 410.692 117.898 410.786 117.703C410.88 117.504 410.927 117.275 410.927 117.018C410.927 116.744 410.882 116.506 410.792 116.303C410.702 116.096 410.577 115.922 410.417 115.781C410.257 115.645 410.065 115.541 409.843 115.471C409.624 115.4 409.384 115.363 409.122 115.359H407.698V118.629ZM418.599 119.057H415.037V122.08H419.191V123H413.953V114.469H419.139V115.395H415.037V118.137H418.599V119.057Z" fill="#091315"/>
<rect x="265" width="209" height="78" rx="24" fill="#FCC5C5"/>
<path d="M286.484 26.8438C286.484 26.582 286.424 26.3613 286.303 26.1816C286.186 26.002 286.033 25.8496 285.846 25.7246C285.658 25.6035 285.451 25.502 285.225 25.4199C285.002 25.3379 284.787 25.2637 284.58 25.1973C284.279 25.0996 283.973 24.9824 283.66 24.8457C283.352 24.7051 283.07 24.5371 282.816 24.3418C282.559 24.1426 282.348 23.9082 282.184 23.6387C282.023 23.3652 281.943 23.0449 281.943 22.6777C281.943 22.3105 282.023 21.9824 282.184 21.6934C282.348 21.4043 282.561 21.1602 282.822 20.9609C283.084 20.7617 283.381 20.6113 283.713 20.5098C284.045 20.4043 284.379 20.3516 284.715 20.3516C285.086 20.3516 285.443 20.4141 285.787 20.5391C286.131 20.6602 286.436 20.832 286.701 21.0547C286.967 21.2773 287.18 21.5469 287.34 21.8633C287.5 22.1797 287.584 22.5332 287.592 22.9238H286.479C286.447 22.6777 286.387 22.4551 286.297 22.2559C286.207 22.0527 286.088 21.8789 285.939 21.7344C285.791 21.5898 285.613 21.4785 285.406 21.4004C285.203 21.3184 284.973 21.2773 284.715 21.2773C284.508 21.2773 284.305 21.3066 284.105 21.3652C283.91 21.4238 283.736 21.5117 283.584 21.6289C283.428 21.7461 283.303 21.8906 283.209 22.0625C283.119 22.2344 283.074 22.4336 283.074 22.6602C283.078 22.9062 283.141 23.1152 283.262 23.2871C283.383 23.4551 283.537 23.5977 283.725 23.7148C283.908 23.832 284.107 23.9297 284.322 24.0078C284.541 24.0859 284.746 24.1543 284.938 24.2129C285.254 24.3105 285.57 24.4297 285.887 24.5703C286.203 24.707 286.492 24.8828 286.754 25.0977C287.012 25.2969 287.219 25.541 287.375 25.8301C287.535 26.1191 287.615 26.4531 287.615 26.832C287.615 27.2148 287.529 27.5488 287.357 27.834C287.189 28.1191 286.971 28.3555 286.701 28.543C286.432 28.7344 286.127 28.8789 285.787 28.9766C285.447 29.0703 285.107 29.1172 284.768 29.1172C284.361 29.1172 283.961 29.0488 283.566 28.9121C283.176 28.7754 282.836 28.5781 282.547 28.3203C282.289 28.0977 282.084 27.8379 281.932 27.541C281.783 27.2402 281.703 26.9062 281.691 26.5391H282.799C282.834 26.8047 282.906 27.041 283.016 27.248C283.125 27.4512 283.266 27.623 283.438 27.7637C283.609 27.9082 283.807 28.0176 284.029 28.0918C284.256 28.1621 284.502 28.1973 284.768 28.1973C284.979 28.1973 285.186 28.1719 285.389 28.1211C285.596 28.0664 285.779 27.9824 285.939 27.8691C286.1 27.7598 286.23 27.6211 286.332 27.4531C286.434 27.2812 286.484 27.0781 286.484 26.8438ZM290.53 25.5781V29H289.446V20.4688H292.212C292.595 20.4766 292.956 20.5371 293.296 20.6504C293.64 20.7637 293.94 20.9277 294.198 21.1426C294.456 21.3574 294.659 21.623 294.807 21.9395C294.96 22.2559 295.036 22.6191 295.036 23.0293C295.036 23.4395 294.96 23.8027 294.807 24.1191C294.659 24.4316 294.456 24.6953 294.198 24.9102C293.94 25.125 293.64 25.2891 293.296 25.4023C292.956 25.5156 292.595 25.5742 292.212 25.5781H290.53ZM290.53 24.6875H292.212C292.462 24.6836 292.692 24.6445 292.903 24.5703C293.114 24.4922 293.298 24.3828 293.454 24.2422C293.61 24.1016 293.731 23.9316 293.817 23.7324C293.907 23.5293 293.952 23.2988 293.952 23.041C293.952 22.7832 293.907 22.5508 293.817 22.3438C293.731 22.1367 293.612 21.9609 293.46 21.8164C293.304 21.6719 293.118 21.5605 292.903 21.4824C292.692 21.4043 292.462 21.3633 292.212 21.3594H290.53V24.6875ZM299.498 25.5195H297.793V29H296.715V20.4688H299.217C299.615 20.4766 299.99 20.5332 300.342 20.6387C300.693 20.7441 301.002 20.9023 301.267 21.1133C301.529 21.3242 301.734 21.5898 301.883 21.9102C302.035 22.2266 302.111 22.5996 302.111 23.0293C302.111 23.3066 302.07 23.5605 301.988 23.791C301.91 24.0215 301.801 24.2305 301.66 24.418C301.519 24.6055 301.351 24.7715 301.156 24.916C300.961 25.0605 300.746 25.1836 300.511 25.2852L302.322 28.9297L302.316 29H301.174L299.498 25.5195ZM297.793 24.6289H299.246C299.488 24.625 299.717 24.5879 299.931 24.5176C300.146 24.4434 300.336 24.3379 300.5 24.2012C300.66 24.0645 300.787 23.8984 300.881 23.7031C300.974 23.5039 301.021 23.2754 301.021 23.0176C301.021 22.7441 300.976 22.5059 300.886 22.3027C300.797 22.0957 300.672 21.9219 300.511 21.7812C300.351 21.6445 300.16 21.541 299.937 21.4707C299.719 21.4004 299.478 21.3633 299.217 21.3594H297.793V24.6289ZM308.694 25.0566H305.131V28.0801H309.286V29H304.048V20.4688H309.233V21.3945H305.131V24.1367H308.694V25.0566ZM315.4 26.791H312.552L311.867 29H310.783L313.537 20.4688H314.445L317.152 29H316.074L315.4 26.791ZM312.845 25.8477H315.113L313.988 22.1445L312.845 25.8477ZM318.543 29V20.4688H320.518C320.85 20.4727 321.162 20.5078 321.455 20.5742C321.752 20.6367 322.026 20.7266 322.276 20.8438C322.623 21.0039 322.93 21.2148 323.196 21.4766C323.465 21.7344 323.68 22.0332 323.84 22.373C323.985 22.6621 324.094 22.9785 324.168 23.3223C324.246 23.666 324.287 24.0332 324.291 24.4238V25.0508C324.291 25.4258 324.254 25.7812 324.18 26.1172C324.11 26.4531 324.006 26.7617 323.87 27.043C323.729 27.3359 323.551 27.6016 323.336 27.8398C323.121 28.0781 322.881 28.2812 322.616 28.4492C322.334 28.625 322.016 28.7598 321.661 28.8535C321.309 28.9473 320.928 28.9961 320.518 29H318.543ZM319.645 21.3594V28.1152H320.518C320.83 28.1113 321.114 28.0723 321.368 27.998C321.625 27.9238 321.854 27.8184 322.053 27.6816C322.264 27.541 322.446 27.3691 322.598 27.166C322.754 26.959 322.877 26.7285 322.967 26.4746C323.045 26.2676 323.104 26.0449 323.143 25.8066C323.182 25.5645 323.204 25.3125 323.207 25.0508V24.4121C323.204 24.1465 323.18 23.8926 323.137 23.6504C323.098 23.4043 323.037 23.1758 322.955 22.9648C322.85 22.6914 322.707 22.4453 322.528 22.2266C322.352 22.0039 322.135 21.8242 321.877 21.6875C321.694 21.5859 321.489 21.5078 321.262 21.4531C321.036 21.3945 320.787 21.3633 320.518 21.3594H319.645ZM330.447 26.8438C330.447 26.582 330.386 26.3613 330.265 26.1816C330.148 26.002 329.995 25.8496 329.808 25.7246C329.62 25.6035 329.413 25.502 329.187 25.4199C328.964 25.3379 328.749 25.2637 328.542 25.1973C328.241 25.0996 327.935 24.9824 327.622 24.8457C327.314 24.7051 327.033 24.5371 326.779 24.3418C326.521 24.1426 326.31 23.9082 326.146 23.6387C325.986 23.3652 325.906 23.0449 325.906 22.6777C325.906 22.3105 325.986 21.9824 326.146 21.6934C326.31 21.4043 326.523 21.1602 326.784 20.9609C327.046 20.7617 327.343 20.6113 327.675 20.5098C328.007 20.4043 328.341 20.3516 328.677 20.3516C329.048 20.3516 329.406 20.4141 329.749 20.5391C330.093 20.6602 330.398 20.832 330.663 21.0547C330.929 21.2773 331.142 21.5469 331.302 21.8633C331.462 22.1797 331.546 22.5332 331.554 22.9238H330.441C330.409 22.6777 330.349 22.4551 330.259 22.2559C330.169 22.0527 330.05 21.8789 329.902 21.7344C329.753 21.5898 329.575 21.4785 329.368 21.4004C329.165 21.3184 328.935 21.2773 328.677 21.2773C328.47 21.2773 328.267 21.3066 328.068 21.3652C327.872 21.4238 327.699 21.5117 327.546 21.6289C327.39 21.7461 327.265 21.8906 327.171 22.0625C327.081 22.2344 327.036 22.4336 327.036 22.6602C327.04 22.9062 327.103 23.1152 327.224 23.2871C327.345 23.4551 327.499 23.5977 327.687 23.7148C327.87 23.832 328.07 23.9297 328.284 24.0078C328.503 24.0859 328.708 24.1543 328.9 24.2129C329.216 24.3105 329.533 24.4297 329.849 24.5703C330.165 24.707 330.454 24.8828 330.716 25.0977C330.974 25.2969 331.181 25.541 331.337 25.8301C331.497 26.1191 331.577 26.4531 331.577 26.832C331.577 27.2148 331.491 27.5488 331.32 27.834C331.152 28.1191 330.933 28.3555 330.663 28.543C330.394 28.7344 330.089 28.8789 329.749 28.9766C329.409 29.0703 329.07 29.1172 328.73 29.1172C328.324 29.1172 327.923 29.0488 327.529 28.9121C327.138 28.7754 326.798 28.5781 326.509 28.3203C326.251 28.0977 326.046 27.8379 325.894 27.541C325.745 27.2402 325.665 26.9062 325.654 26.5391H326.761C326.796 26.8047 326.868 27.041 326.978 27.248C327.087 27.4512 327.228 27.623 327.4 27.7637C327.572 27.9082 327.769 28.0176 327.991 28.0918C328.218 28.1621 328.464 28.1973 328.73 28.1973C328.941 28.1973 329.148 28.1719 329.351 28.1211C329.558 28.0664 329.741 27.9824 329.902 27.8691C330.062 27.7598 330.193 27.6211 330.294 27.4531C330.396 27.2812 330.447 27.0781 330.447 26.8438ZM338.658 29H337.633V25.0566H334.135V29H333.115V20.4688H334.135V24.1367H337.633V20.4688H338.658V29ZM345.329 25.0566H341.767V28.0801H345.921V29H340.683V20.4688H345.868V21.3945H341.767V24.1367H345.329V25.0566ZM352.656 25.0566H349.094V28.0801H353.248V29H348.01V20.4688H353.195V21.3945H349.094V24.1367H352.656V25.0566ZM361.044 21.3945H358.407V29H357.352V21.3945H354.716V20.4688H361.044V21.3945ZM375.299 20.4688L375.311 26.2461C375.311 26.6445 375.241 27.0176 375.1 27.3652C374.96 27.7129 374.766 28.0156 374.52 28.2734C374.274 28.5352 373.981 28.7422 373.641 28.8945C373.301 29.043 372.928 29.1172 372.522 29.1172C372.108 29.1172 371.731 29.043 371.391 28.8945C371.051 28.7461 370.76 28.541 370.518 28.2793C370.276 28.0215 370.086 27.7188 369.95 27.3711C369.813 27.0195 369.743 26.6445 369.739 26.2461L369.751 20.4688H370.782L370.805 26.2461C370.809 26.5 370.848 26.7441 370.922 26.9785C371.001 27.2129 371.112 27.4199 371.256 27.5996C371.397 27.7793 371.573 27.9238 371.784 28.0332C371.999 28.1426 372.245 28.1973 372.522 28.1973C372.799 28.1973 373.044 28.1445 373.254 28.0391C373.465 27.9297 373.643 27.7832 373.788 27.5996C373.928 27.4199 374.036 27.2129 374.11 26.9785C374.184 26.7441 374.225 26.5 374.233 26.2461L374.251 20.4688H375.299ZM378.455 25.5781V29H377.371V20.4688H380.136C380.519 20.4766 380.88 20.5371 381.22 20.6504C381.564 20.7637 381.865 20.9277 382.122 21.1426C382.38 21.3574 382.583 21.623 382.732 21.9395C382.884 22.2559 382.96 22.6191 382.96 23.0293C382.96 23.4395 382.884 23.8027 382.732 24.1191C382.583 24.4316 382.38 24.6953 382.122 24.9102C381.865 25.125 381.564 25.2891 381.22 25.4023C380.88 25.5156 380.519 25.5742 380.136 25.5781H378.455ZM378.455 24.6875H380.136C380.386 24.6836 380.617 24.6445 380.828 24.5703C381.039 24.4922 381.222 24.3828 381.378 24.2422C381.535 24.1016 381.656 23.9316 381.742 23.7324C381.831 23.5293 381.876 23.2988 381.876 23.041C381.876 22.7832 381.831 22.5508 381.742 22.3438C381.656 22.1367 381.537 21.9609 381.384 21.8164C381.228 21.6719 381.042 21.5605 380.828 21.4824C380.617 21.4043 380.386 21.3633 380.136 21.3594H378.455V24.6875ZM385.823 28.0801H389.994V29H384.739V20.4688H385.823V28.0801ZM397.474 25.2266C397.47 25.5312 397.443 25.8398 397.392 26.1523C397.345 26.4609 397.271 26.7598 397.169 27.0488C397.068 27.3379 396.937 27.6074 396.777 27.8574C396.62 28.1074 396.433 28.3262 396.214 28.5137C395.995 28.7012 395.743 28.8496 395.458 28.959C395.177 29.0645 394.861 29.1172 394.509 29.1172C394.157 29.1172 393.839 29.0645 393.554 28.959C393.273 28.8496 393.023 28.7012 392.804 28.5137C392.585 28.3262 392.396 28.1074 392.236 27.8574C392.075 27.6035 391.945 27.332 391.843 27.043C391.738 26.7539 391.659 26.4551 391.609 26.1465C391.558 25.8379 391.53 25.5312 391.527 25.2266V24.2539C391.53 23.9492 391.556 23.6426 391.603 23.334C391.654 23.0215 391.732 22.7207 391.837 22.4316C391.939 22.1426 392.068 21.873 392.224 21.623C392.384 21.3691 392.573 21.1465 392.792 20.9551C393.011 20.7676 393.261 20.6211 393.542 20.5156C393.827 20.4062 394.146 20.3516 394.497 20.3516C394.849 20.3516 395.167 20.4062 395.452 20.5156C395.738 20.6211 395.989 20.7676 396.208 20.9551C396.427 21.1426 396.614 21.3633 396.771 21.6172C396.931 21.8672 397.064 22.1367 397.169 22.4258C397.271 22.7148 397.345 23.0156 397.392 23.3281C397.443 23.6406 397.47 23.9492 397.474 24.2539V25.2266ZM396.402 24.2422C396.398 24.0391 396.384 23.8281 396.361 23.6094C396.337 23.3867 396.298 23.166 396.243 22.9473C396.185 22.7324 396.109 22.5273 396.015 22.332C395.921 22.1328 395.804 21.957 395.663 21.8047C395.523 21.6562 395.357 21.5391 395.165 21.4531C394.974 21.3633 394.751 21.3184 394.497 21.3184C394.247 21.3184 394.027 21.3633 393.835 21.4531C393.644 21.543 393.478 21.6621 393.337 21.8105C393.196 21.9629 393.079 22.1387 392.986 22.3379C392.892 22.5332 392.818 22.7383 392.763 22.9531C392.704 23.1719 392.661 23.3926 392.634 23.6152C392.611 23.834 392.597 24.043 392.593 24.2422V25.2266C392.597 25.4258 392.611 25.6367 392.634 25.8594C392.661 26.082 392.704 26.3008 392.763 26.5156C392.821 26.7344 392.898 26.9434 392.991 27.1426C393.085 27.3418 393.202 27.5156 393.343 27.6641C393.484 27.8164 393.65 27.9375 393.841 28.0273C394.032 28.1172 394.255 28.1621 394.509 28.1621C394.763 28.1621 394.986 28.1172 395.177 28.0273C395.372 27.9375 395.54 27.8164 395.681 27.6641C395.818 27.5156 395.931 27.3438 396.021 27.1484C396.114 26.9492 396.191 26.7402 396.249 26.5215C396.304 26.3066 396.341 26.0879 396.361 25.8652C396.384 25.6426 396.398 25.4297 396.402 25.2266V24.2422ZM403.324 26.791H400.477L399.791 29H398.707L401.461 20.4688H402.369L405.076 29H403.998L403.324 26.791ZM400.77 25.8477H403.037L401.912 22.1445L400.77 25.8477ZM406.468 29V20.4688H408.442C408.774 20.4727 409.087 20.5078 409.38 20.5742C409.677 20.6367 409.95 20.7266 410.2 20.8438C410.548 21.0039 410.854 21.2148 411.12 21.4766C411.39 21.7344 411.604 22.0332 411.765 22.373C411.909 22.6621 412.019 22.9785 412.093 23.3223C412.171 23.666 412.212 24.0332 412.216 24.4238V25.0508C412.216 25.4258 412.179 25.7812 412.104 26.1172C412.034 26.4531 411.931 26.7617 411.794 27.043C411.653 27.3359 411.476 27.6016 411.261 27.8398C411.046 28.0781 410.806 28.2812 410.54 28.4492C410.259 28.625 409.94 28.7598 409.585 28.8535C409.233 28.9473 408.853 28.9961 408.442 29H406.468ZM407.569 21.3594V28.1152H408.442C408.755 28.1113 409.038 28.0723 409.292 27.998C409.55 27.9238 409.778 27.8184 409.978 27.6816C410.188 27.541 410.37 27.3691 410.522 27.166C410.679 26.959 410.802 26.7285 410.892 26.4746C410.97 26.2676 411.028 26.0449 411.067 25.8066C411.106 25.5645 411.128 25.3125 411.132 25.0508V24.4121C411.128 24.1465 411.104 23.8926 411.061 23.6504C411.022 23.4043 410.962 23.1758 410.88 22.9648C410.774 22.6914 410.632 22.4453 410.452 22.2266C410.276 22.0039 410.06 21.8242 409.802 21.6875C409.618 21.5859 409.413 21.5078 409.186 21.4531C408.96 21.3945 408.712 21.3633 408.442 21.3594H407.569Z" fill="#091315"/>
<path d="M261.354 39.3536C261.549 39.1583 261.549 38.8417 261.354 38.6464L258.172 35.4645C257.976 35.2692 257.66 35.2692 257.464 35.4645C257.269 35.6597 257.269 35.9763 257.464 36.1716L260.293 39L257.464 41.8284C257.269 42.0237 257.269 42.3403 257.464 42.5355C257.66 42.7308 257.976 42.7308 258.172 42.5355L261.354 39.3536ZM213 39V39.5L261 39.5V39V38.5L213 38.5V39Z" fill="black"/>
<path d="M261.354 133.354C261.549 133.158 261.549 132.842 261.354 132.646L258.172 129.464C257.976 129.269 257.66 129.269 257.464 129.464C257.269 129.66 257.269 129.976 257.464 130.172L260.293 133L257.464 135.828C257.269 136.024 257.269 136.34 257.464 136.536C257.66 136.731 257.976 136.731 258.172 136.536L261.354 133.354ZM213 133V133.5H261V133V132.5H213V133Z" fill="black"/>
<path d="M526.354 39.3536C526.549 39.1583 526.549 38.8417 526.354 38.6464L523.172 35.4645C522.976 35.2692 522.66 35.2692 522.464 35.4645C522.269 35.6597 522.269 35.9763 522.464 36.1716L525.293 39L522.464 41.8284C522.269 42.0237 522.269 42.3403 522.464 42.5355C522.66 42.7308 522.976 42.7308 523.172 42.5355L526.354 39.3536ZM478 39V39.5L526 39.5V39V38.5L478 38.5V39Z" fill="black"/>
<path d="M526.354 133.354C526.549 133.158 526.549 132.842 526.354 132.646L523.172 129.464C522.976 129.269 522.66 129.269 522.464 129.464C522.269 129.66 522.269 129.976 522.464 130.172L525.293 133L522.464 135.828C522.269 136.024 522.269 136.34 522.464 136.536C522.66 136.731 522.976 136.731 523.172 136.536L526.354 133.354ZM478 133V133.5H526V133V132.5H478V133Z" fill="black"/>
</svg>
