<svg width="354" height="390" viewBox="0 0 354 390" fill="none" xmlns="http://www.w3.org/2000/svg">
<rect width="173" height="78" rx="2" fill="#A0C8E9"/>
<path d="M22.3633 29H21.2617L17.9512 22.625L17.9336 29H16.8379V20.4688H17.9395L21.25 26.832L21.2676 20.4688H22.3633V29ZM28.4188 26.791H25.5712L24.8856 29H23.8016L26.5555 20.4688H27.4637L30.1708 29H29.0927L28.4188 26.791ZM25.8641 25.8477H28.1317L27.0067 22.1445L25.8641 25.8477ZM37.4275 21.3945H34.7908V29H33.7361V21.3945H31.0994V20.4688H37.4275V21.3945ZM39.0006 20.4688H44.1569V21.4121H42.112V28.0625H44.1569V29H39.0006V28.0625H40.9987V21.4121H39.0006V20.4688ZM46.3277 20.4688H51.4839V21.4121H49.439V28.0625H51.4839V29H46.3277V28.0625H48.3257V21.4121H46.3277V20.4688ZM58.9984 29H57.8969L54.5863 22.625L54.5687 29H53.473V20.4688H54.5746L57.8852 26.832L57.9027 20.4688H58.9984V29ZM65.054 26.791H62.2063L61.5208 29H60.4368L63.1907 20.4688H64.0989L66.8059 29H65.7278L65.054 26.791ZM62.4993 25.8477H64.7669L63.6419 22.1445L62.4993 25.8477ZM69.5334 28.0801H73.7052V29H68.4494V20.4688H69.5334V28.0801ZM85.787 25.5195H84.082V29H83.0038V20.4688H85.5058C85.9042 20.4766 86.2792 20.5332 86.6308 20.6387C86.9823 20.7441 87.2909 20.9023 87.5566 21.1133C87.8183 21.3242 88.0234 21.5898 88.1718 21.9102C88.3241 22.2266 88.4003 22.5996 88.4003 23.0293C88.4003 23.3066 88.3593 23.5605 88.2773 23.791C88.1991 24.0215 88.0898 24.2305 87.9491 24.418C87.8085 24.6055 87.6405 24.7715 87.4452 24.916C87.2499 25.0605 87.0351 25.1836 86.8007 25.2852L88.6113 28.9297L88.6054 29H87.4628L85.787 25.5195ZM84.082 24.6289H85.5351C85.7773 24.625 86.0058 24.5879 86.2206 24.5176C86.4355 24.4434 86.6249 24.3379 86.789 24.2012C86.9491 24.0645 87.0761 23.8984 87.1698 23.7031C87.2636 23.5039 87.3105 23.2754 87.3105 23.0176C87.3105 22.7441 87.2655 22.5059 87.1757 22.3027C87.0859 22.0957 86.9609 21.9219 86.8007 21.7812C86.6405 21.6445 86.4491 21.541 86.2265 21.4707C86.0077 21.4004 85.7675 21.3633 85.5058 21.3594H84.082V24.6289ZM94.9832 25.0566H91.4207V28.0801H95.575V29H90.3367V20.4688H95.5223V21.3945H91.4207V24.1367H94.9832V25.0566ZM103.136 27.8809C103.004 28.0371 102.863 28.1797 102.715 28.3086C102.566 28.4336 102.412 28.543 102.252 28.6367C101.978 28.8008 101.683 28.9219 101.367 29C101.05 29.082 100.718 29.1211 100.371 29.1172C100.019 29.1133 99.695 29.0605 99.3981 28.959C99.1052 28.8535 98.8415 28.709 98.6071 28.5254C98.3727 28.3457 98.1677 28.1328 97.9919 27.8867C97.8161 27.6406 97.6696 27.373 97.5524 27.084C97.4313 26.7988 97.3395 26.5 97.277 26.1875C97.2184 25.8711 97.1872 25.5527 97.1833 25.2324V24.2422C97.1872 23.9258 97.2145 23.6113 97.2653 23.2988C97.32 22.9824 97.402 22.6797 97.5114 22.3906C97.6208 22.1016 97.7575 21.834 97.9216 21.5879C98.0856 21.3379 98.2829 21.1211 98.5134 20.9375C98.7399 20.7578 98.9977 20.6152 99.2868 20.5098C99.5759 20.4043 99.9001 20.3516 100.259 20.3516C100.658 20.3516 101.025 20.4141 101.361 20.5391C101.697 20.6602 101.99 20.834 102.24 21.0605C102.49 21.291 102.691 21.5684 102.843 21.8926C102.996 22.2129 103.09 22.5723 103.125 22.9707H102.052C102.009 22.7246 101.943 22.498 101.853 22.291C101.763 22.0801 101.646 21.9004 101.502 21.752C101.353 21.6035 101.177 21.4883 100.974 21.4062C100.771 21.3203 100.535 21.2773 100.265 21.2773C100.007 21.2773 99.779 21.3223 99.5798 21.4121C99.3805 21.498 99.2067 21.6152 99.0583 21.7637C98.9098 21.9121 98.7868 22.0859 98.6891 22.2852C98.5915 22.4805 98.5114 22.6875 98.4489 22.9062C98.3864 23.125 98.3415 23.3477 98.3141 23.5742C98.2868 23.8008 98.2731 24.0195 98.2731 24.2305V25.2324C98.277 25.4473 98.2946 25.6699 98.3259 25.9004C98.361 26.127 98.4137 26.3496 98.4841 26.5684C98.5544 26.7871 98.6442 26.9941 98.7536 27.1895C98.863 27.3848 98.9958 27.5566 99.152 27.7051C99.3044 27.8535 99.4821 27.9727 99.6852 28.0625C99.8884 28.1484 100.119 28.1934 100.377 28.1973C100.525 28.2012 100.679 28.1953 100.84 28.1797C101.004 28.1641 101.162 28.1328 101.314 28.0859C101.466 28.0391 101.609 27.9766 101.742 27.8984C101.875 27.8164 101.986 27.7109 102.076 27.582L102.088 25.666H100.353V24.752H103.119L103.136 27.8809ZM104.944 20.4688H110.1V21.4121H108.055V28.0625H110.1V29H104.944V28.0625H106.942V21.4121H104.944V20.4688ZM116.736 26.8438C116.736 26.582 116.675 26.3613 116.554 26.1816C116.437 26.002 116.285 25.8496 116.097 25.7246C115.91 25.6035 115.703 25.502 115.476 25.4199C115.253 25.3379 115.039 25.2637 114.831 25.1973C114.531 25.0996 114.224 24.9824 113.912 24.8457C113.603 24.7051 113.322 24.5371 113.068 24.3418C112.81 24.1426 112.599 23.9082 112.435 23.6387C112.275 23.3652 112.195 23.0449 112.195 22.6777C112.195 22.3105 112.275 21.9824 112.435 21.6934C112.599 21.4043 112.812 21.1602 113.074 20.9609C113.335 20.7617 113.632 20.6113 113.964 20.5098C114.296 20.4043 114.63 20.3516 114.966 20.3516C115.337 20.3516 115.695 20.4141 116.039 20.5391C116.382 20.6602 116.687 20.832 116.953 21.0547C117.218 21.2773 117.431 21.5469 117.591 21.8633C117.751 22.1797 117.835 22.5332 117.843 22.9238H116.73C116.699 22.6777 116.638 22.4551 116.548 22.2559C116.458 22.0527 116.339 21.8789 116.191 21.7344C116.042 21.5898 115.865 21.4785 115.658 21.4004C115.455 21.3184 115.224 21.2773 114.966 21.2773C114.759 21.2773 114.556 21.3066 114.357 21.3652C114.162 21.4238 113.988 21.5117 113.835 21.6289C113.679 21.7461 113.554 21.8906 113.46 22.0625C113.371 22.2344 113.326 22.4336 113.326 22.6602C113.33 22.9062 113.392 23.1152 113.513 23.2871C113.634 23.4551 113.789 23.5977 113.976 23.7148C114.16 23.832 114.359 23.9297 114.574 24.0078C114.792 24.0859 114.997 24.1543 115.189 24.2129C115.505 24.3105 115.822 24.4297 116.138 24.5703C116.455 24.707 116.744 24.8828 117.005 25.0977C117.263 25.2969 117.47 25.541 117.626 25.8301C117.787 26.1191 117.867 26.4531 117.867 26.832C117.867 27.2148 117.781 27.5488 117.609 27.834C117.441 28.1191 117.222 28.3555 116.953 28.543C116.683 28.7344 116.378 28.8789 116.039 28.9766C115.699 29.0703 115.359 29.1172 115.019 29.1172C114.613 29.1172 114.212 29.0488 113.818 28.9121C113.427 28.7754 113.087 28.5781 112.798 28.3203C112.54 28.0977 112.335 27.8379 112.183 27.541C112.035 27.2402 111.955 26.9062 111.943 26.5391H113.05C113.085 26.8047 113.158 27.041 113.267 27.248C113.376 27.4512 113.517 27.623 113.689 27.7637C113.861 27.9082 114.058 28.0176 114.281 28.0918C114.507 28.1621 114.753 28.1973 115.019 28.1973C115.23 28.1973 115.437 28.1719 115.64 28.1211C115.847 28.0664 116.031 27.9824 116.191 27.8691C116.351 27.7598 116.482 27.6211 116.583 27.4531C116.685 27.2812 116.736 27.0781 116.736 26.8438ZM125.352 21.3945H122.715V29H121.66V21.3945H119.024V20.4688H125.352V21.3945ZM129.749 25.5195H128.044V29H126.966V20.4688H129.468C129.866 20.4766 130.241 20.5332 130.593 20.6387C130.945 20.7441 131.253 20.9023 131.519 21.1133C131.78 21.3242 131.986 21.5898 132.134 21.9102C132.286 22.2266 132.363 22.5996 132.363 23.0293C132.363 23.3066 132.321 23.5605 132.239 23.791C132.161 24.0215 132.052 24.2305 131.911 24.418C131.771 24.6055 131.603 24.7715 131.407 24.916C131.212 25.0605 130.997 25.1836 130.763 25.2852L132.573 28.9297L132.568 29H131.425L129.749 25.5195ZM128.044 24.6289H129.497C129.739 24.625 129.968 24.5879 130.183 24.5176C130.398 24.4434 130.587 24.3379 130.751 24.2012C130.911 24.0645 131.038 23.8984 131.132 23.7031C131.226 23.5039 131.273 23.2754 131.273 23.0176C131.273 22.7441 131.228 22.5059 131.138 22.3027C131.048 22.0957 130.923 21.9219 130.763 21.7812C130.603 21.6445 130.411 21.541 130.189 21.4707C129.97 21.4004 129.73 21.3633 129.468 21.3594H128.044V24.6289ZM136.766 24.752L138.711 20.4688H139.941L137.287 25.8184L137.27 29H136.262L136.244 25.8184L133.59 20.4688H134.826L136.766 24.752ZM150.336 29.7324H149.363L152.926 20.4688H153.892L150.336 29.7324ZM21.4844 42.8438C21.4844 42.582 21.4238 42.3613 21.3027 42.1816C21.1855 42.002 21.0332 41.8496 20.8457 41.7246C20.6582 41.6035 20.4512 41.502 20.2246 41.4199C20.002 41.3379 19.7871 41.2637 19.5801 41.1973C19.2793 41.0996 18.9727 40.9824 18.6602 40.8457C18.3516 40.7051 18.0703 40.5371 17.8164 40.3418C17.5586 40.1426 17.3477 39.9082 17.1836 39.6387C17.0234 39.3652 16.9434 39.0449 16.9434 38.6777C16.9434 38.3105 17.0234 37.9824 17.1836 37.6934C17.3477 37.4043 17.5605 37.1602 17.8223 36.9609C18.084 36.7617 18.3809 36.6113 18.7129 36.5098C19.0449 36.4043 19.3789 36.3516 19.7148 36.3516C20.0859 36.3516 20.4434 36.4141 20.7871 36.5391C21.1309 36.6602 21.4355 36.832 21.7012 37.0547C21.9668 37.2773 22.1797 37.5469 22.3398 37.8633C22.5 38.1797 22.584 38.5332 22.5918 38.9238H21.4785C21.4473 38.6777 21.3867 38.4551 21.2969 38.2559C21.207 38.0527 21.0879 37.8789 20.9395 37.7344C20.791 37.5898 20.6133 37.4785 20.4062 37.4004C20.2031 37.3184 19.9727 37.2773 19.7148 37.2773C19.5078 37.2773 19.3047 37.3066 19.1055 37.3652C18.9102 37.4238 18.7363 37.5117 18.584 37.6289C18.4277 37.7461 18.3027 37.8906 18.209 38.0625C18.1191 38.2344 18.0742 38.4336 18.0742 38.6602C18.0781 38.9062 18.1406 39.1152 18.2617 39.2871C18.3828 39.4551 18.5371 39.5977 18.7246 39.7148C18.9082 39.832 19.1074 39.9297 19.3223 40.0078C19.541 40.0859 19.7461 40.1543 19.9375 40.2129C20.2539 40.3105 20.5703 40.4297 20.8867 40.5703C21.2031 40.707 21.4922 40.8828 21.7539 41.0977C22.0117 41.2969 22.2188 41.541 22.375 41.8301C22.5352 42.1191 22.6152 42.4531 22.6152 42.832C22.6152 43.2148 22.5293 43.5488 22.3574 43.834C22.1895 44.1191 21.9707 44.3555 21.7012 44.543C21.4316 44.7344 21.127 44.8789 20.7871 44.9766C20.4473 45.0703 20.1074 45.1172 19.7676 45.1172C19.3613 45.1172 18.9609 45.0488 18.5664 44.9121C18.1758 44.7754 17.8359 44.5781 17.5469 44.3203C17.2891 44.0977 17.084 43.8379 16.9316 43.541C16.7832 43.2402 16.7031 42.9062 16.6914 42.5391H17.7988C17.834 42.8047 17.9062 43.041 18.0156 43.248C18.125 43.4512 18.2656 43.623 18.4375 43.7637C18.6094 43.9082 18.8066 44.0176 19.0293 44.0918C19.2559 44.1621 19.502 44.1973 19.7676 44.1973C19.9785 44.1973 20.1855 44.1719 20.3887 44.1211C20.5957 44.0664 20.7793 43.9824 20.9395 43.8691C21.0996 43.7598 21.2305 43.6211 21.332 43.4531C21.4336 43.2812 21.4844 43.0781 21.4844 42.8438ZM30.1005 37.3945H27.4637V45H26.4091V37.3945H23.7723V36.4688H30.1005V37.3945ZM34.4978 41.5195H32.7927V45H31.7146V36.4688H34.2166C34.615 36.4766 34.99 36.5332 35.3416 36.6387C35.6931 36.7441 36.0017 36.9023 36.2673 37.1133C36.5291 37.3242 36.7341 37.5898 36.8826 37.9102C37.0349 38.2266 37.1111 38.5996 37.1111 39.0293C37.1111 39.3066 37.0701 39.5605 36.988 39.791C36.9099 40.0215 36.8005 40.2305 36.6599 40.418C36.5193 40.6055 36.3513 40.7715 36.156 40.916C35.9607 41.0605 35.7459 41.1836 35.5115 41.2852L37.322 44.9297L37.3162 45H36.1736L34.4978 41.5195ZM32.7927 40.6289H34.2459C34.488 40.625 34.7166 40.5879 34.9314 40.5176C35.1462 40.4434 35.3357 40.3379 35.4998 40.2012C35.6599 40.0645 35.7869 39.8984 35.8806 39.7031C35.9744 39.5039 36.0212 39.2754 36.0212 39.0176C36.0212 38.7441 35.9763 38.5059 35.8865 38.3027C35.7966 38.0957 35.6716 37.9219 35.5115 37.7812C35.3513 37.6445 35.1599 37.541 34.9373 37.4707C34.7185 37.4004 34.4783 37.3633 34.2166 37.3594H32.7927V40.6289ZM44.3561 36.4688L44.3678 42.2461C44.3678 42.6445 44.2975 43.0176 44.1569 43.3652C44.0163 43.7129 43.8229 44.0156 43.5768 44.2734C43.3307 44.5352 43.0377 44.7422 42.6979 44.8945C42.358 45.043 41.985 45.1172 41.5788 45.1172C41.1647 45.1172 40.7877 45.043 40.4479 44.8945C40.108 44.7461 39.817 44.541 39.5748 44.2793C39.3327 44.0215 39.1432 43.7188 39.0065 43.3711C38.8698 43.0195 38.7995 42.6445 38.7955 42.2461L38.8073 36.4688H39.8385L39.862 42.2461C39.8659 42.5 39.9049 42.7441 39.9791 42.9785C40.0573 43.2129 40.1686 43.4199 40.3131 43.5996C40.4538 43.7793 40.6295 43.9238 40.8405 44.0332C41.0553 44.1426 41.3014 44.1973 41.5788 44.1973C41.8561 44.1973 42.1002 44.1445 42.3112 44.0391C42.5221 43.9297 42.6998 43.7832 42.8444 43.5996C42.985 43.4199 43.0924 43.2129 43.1666 42.9785C43.2409 42.7441 43.2819 42.5 43.2897 42.2461L43.3073 36.4688H44.3561ZM51.853 42.4336C51.8023 42.8281 51.7007 43.1914 51.5484 43.5234C51.396 43.8516 51.1987 44.1328 50.9566 44.3672C50.7105 44.6055 50.4195 44.791 50.0835 44.9238C49.7515 45.0527 49.3804 45.1172 48.9702 45.1172C48.6187 45.1172 48.2984 45.0684 48.0093 44.9707C47.7241 44.8691 47.4702 44.7305 47.2476 44.5547C47.021 44.3789 46.8257 44.1719 46.6616 43.9336C46.5015 43.6953 46.3687 43.4355 46.2632 43.1543C46.1538 42.873 46.0718 42.5781 46.0171 42.2695C45.9663 41.9609 45.939 41.6484 45.9351 41.332V40.1426C45.939 39.8262 45.9663 39.5137 46.0171 39.2051C46.0718 38.8965 46.1538 38.6016 46.2632 38.3203C46.3687 38.0391 46.5015 37.7793 46.6616 37.541C46.8257 37.2988 47.021 37.0898 47.2476 36.9141C47.4702 36.7383 47.7241 36.6016 48.0093 36.5039C48.2945 36.4023 48.6148 36.3516 48.9702 36.3516C49.396 36.3516 49.7769 36.418 50.1128 36.5508C50.4487 36.6797 50.7378 36.8633 50.98 37.1016C51.2222 37.3438 51.4155 37.6328 51.5601 37.9688C51.7085 38.3047 51.8062 38.6758 51.853 39.082H50.7691C50.7339 38.8242 50.6734 38.584 50.5874 38.3613C50.5015 38.1387 50.3862 37.9434 50.2417 37.7754C50.0972 37.6074 49.9195 37.4766 49.7085 37.3828C49.5015 37.2852 49.2554 37.2363 48.9702 37.2363C48.7124 37.2363 48.4839 37.2793 48.2847 37.3652C48.0894 37.4473 47.9214 37.5605 47.7808 37.7051C47.6362 37.8496 47.5152 38.0176 47.4175 38.209C47.3237 38.4004 47.2476 38.6035 47.189 38.8184C47.1304 39.0332 47.0874 39.2539 47.0601 39.4805C47.0366 39.7031 47.0249 39.9199 47.0249 40.1309V41.332C47.0249 41.543 47.0366 41.7617 47.0601 41.9883C47.0874 42.2109 47.1304 42.4297 47.189 42.6445C47.2476 42.8633 47.3237 43.0684 47.4175 43.2598C47.5112 43.4512 47.6304 43.6191 47.7749 43.7637C47.9195 43.9121 48.0894 44.0293 48.2847 44.1152C48.48 44.1973 48.7085 44.2383 48.9702 44.2383C49.2554 44.2383 49.5015 44.1934 49.7085 44.1035C49.9195 44.0137 50.0972 43.8867 50.2417 43.7227C50.3862 43.5625 50.5015 43.373 50.5874 43.1543C50.6734 42.9316 50.7339 42.6914 50.7691 42.4336H51.853ZM59.4086 37.3945H56.7719V45H55.7172V37.3945H53.0805V36.4688H59.4086V37.3945ZM66.3372 36.4688L66.3489 42.2461C66.3489 42.6445 66.2786 43.0176 66.138 43.3652C65.9973 43.7129 65.804 44.0156 65.5579 44.2734C65.3118 44.5352 65.0188 44.7422 64.679 44.8945C64.3391 45.043 63.9661 45.1172 63.5598 45.1172C63.1458 45.1172 62.7688 45.043 62.429 44.8945C62.0891 44.7461 61.7981 44.541 61.5559 44.2793C61.3138 44.0215 61.1243 43.7188 60.9876 43.3711C60.8509 43.0195 60.7805 42.6445 60.7766 42.2461L60.7884 36.4688H61.8196L61.843 42.2461C61.847 42.5 61.886 42.7441 61.9602 42.9785C62.0384 43.2129 62.1497 43.4199 62.2942 43.5996C62.4348 43.7793 62.6106 43.9238 62.8216 44.0332C63.0364 44.1426 63.2825 44.1973 63.5598 44.1973C63.8372 44.1973 64.0813 44.1445 64.2923 44.0391C64.5032 43.9297 64.6809 43.7832 64.8255 43.5996C64.9661 43.4199 65.0735 43.2129 65.1477 42.9785C65.222 42.7441 65.263 42.5 65.2708 42.2461L65.2884 36.4688H66.3372ZM71.133 41.5195H69.4279V45H68.3498V36.4688H70.8517C71.2502 36.4766 71.6252 36.5332 71.9767 36.6387C72.3283 36.7441 72.6369 36.9023 72.9025 37.1133C73.1642 37.3242 73.3693 37.5898 73.5177 37.9102C73.6701 38.2266 73.7463 38.5996 73.7463 39.0293C73.7463 39.3066 73.7052 39.5605 73.6232 39.791C73.5451 40.0215 73.4357 40.2305 73.2951 40.418C73.1545 40.6055 72.9865 40.7715 72.7912 40.916C72.5959 41.0605 72.381 41.1836 72.1466 41.2852L73.9572 44.9297L73.9513 45H72.8088L71.133 41.5195ZM69.4279 40.6289H70.881C71.1232 40.625 71.3517 40.5879 71.5666 40.5176C71.7814 40.4434 71.9709 40.3379 72.1349 40.2012C72.2951 40.0645 72.422 39.8984 72.5158 39.7031C72.6095 39.5039 72.6564 39.2754 72.6564 39.0176C72.6564 38.7441 72.6115 38.5059 72.5216 38.3027C72.4318 38.0957 72.3068 37.9219 72.1466 37.7812C71.9865 37.6445 71.7951 37.541 71.5724 37.4707C71.3537 37.4004 71.1134 37.3633 70.8517 37.3594H69.4279V40.6289ZM80.3291 41.0566H76.7666V44.0801H80.9209V45H75.6827V36.4688H80.8682V37.3945H76.7666V40.1367H80.3291V41.0566ZM82.8515 45V36.4688H84.8261C85.1581 36.4727 85.4706 36.5078 85.7636 36.5742C86.0605 36.6367 86.3339 36.7266 86.5839 36.8438C86.9316 37.0039 87.2382 37.2148 87.5038 37.4766C87.7734 37.7344 87.9882 38.0332 88.1484 38.373C88.2929 38.6621 88.4023 38.9785 88.4765 39.3223C88.5546 39.666 88.5956 40.0332 88.5995 40.4238V41.0508C88.5995 41.4258 88.5624 41.7812 88.4882 42.1172C88.4179 42.4531 88.3144 42.7617 88.1777 43.043C88.037 43.3359 87.8593 43.6016 87.6445 43.8398C87.4296 44.0781 87.1894 44.2812 86.9238 44.4492C86.6425 44.625 86.3241 44.7598 85.9687 44.8535C85.6171 44.9473 85.2363 44.9961 84.8261 45H82.8515ZM83.953 37.3594V44.1152H84.8261C85.1386 44.1113 85.4218 44.0723 85.6757 43.998C85.9335 43.9238 86.162 43.8184 86.3613 43.6816C86.5722 43.541 86.7538 43.3691 86.9062 43.166C87.0624 42.959 87.1855 42.7285 87.2753 42.4746C87.3534 42.2676 87.412 42.0449 87.4511 41.8066C87.4902 41.5645 87.5116 41.3125 87.5155 41.0508V40.4121C87.5116 40.1465 87.4882 39.8926 87.4452 39.6504C87.4062 39.4043 87.3456 39.1758 87.2636 38.9648C87.1581 38.6914 87.0155 38.4453 86.8359 38.2266C86.6601 38.0039 86.4433 37.8242 86.1855 37.6875C86.0019 37.5859 85.7968 37.5078 85.5702 37.4531C85.3437 37.3945 85.0956 37.3633 84.8261 37.3594H83.953ZM16.9082 61V52.4688H18.8828C19.2148 52.4727 19.5273 52.5078 19.8203 52.5742C20.1172 52.6367 20.3906 52.7266 20.6406 52.8438C20.9883 53.0039 21.2949 53.2148 21.5605 53.4766C21.8301 53.7344 22.0449 54.0332 22.2051 54.373C22.3496 54.6621 22.459 54.9785 22.5332 55.3223C22.6113 55.666 22.6523 56.0332 22.6562 56.4238V57.0508C22.6562 57.4258 22.6191 57.7812 22.5449 58.1172C22.4746 58.4531 22.3711 58.7617 22.2344 59.043C22.0938 59.3359 21.916 59.6016 21.7012 59.8398C21.4863 60.0781 21.2461 60.2812 20.9805 60.4492C20.6992 60.625 20.3809 60.7598 20.0254 60.8535C19.6738 60.9473 19.293 60.9961 18.8828 61H16.9082ZM18.0098 53.3594V60.1152H18.8828C19.1953 60.1113 19.4785 60.0723 19.7324 59.998C19.9902 59.9238 20.2188 59.8184 20.418 59.6816C20.6289 59.541 20.8105 59.3691 20.9629 59.166C21.1191 58.959 21.2422 58.7285 21.332 58.4746C21.4102 58.2676 21.4688 58.0449 21.5078 57.8066C21.5469 57.5645 21.5684 57.3125 21.5723 57.0508V56.4121C21.5684 56.1465 21.5449 55.8926 21.502 55.6504C21.4629 55.4043 21.4023 55.1758 21.3203 54.9648C21.2148 54.6914 21.0723 54.4453 20.8926 54.2266C20.7168 54.0039 20.5 53.8242 20.2422 53.6875C20.0586 53.5859 19.8535 53.5078 19.627 53.4531C19.4004 53.3945 19.1523 53.3633 18.8828 53.3594H18.0098ZM28.4188 58.791H25.5712L24.8856 61H23.8016L26.5555 52.4688H27.4637L30.1708 61H29.0927L28.4188 58.791ZM25.8641 57.8477H28.1317L27.0067 54.1445L25.8641 57.8477ZM37.4275 53.3945H34.7908V61H33.7361V53.3945H31.0994V52.4688H37.4275V53.3945ZM43.0729 58.791H40.2252L39.5397 61H38.4557L41.2096 52.4688H42.1178L44.8248 61H43.7467L43.0729 58.791ZM40.5182 57.8477H42.7858L41.6608 54.1445L40.5182 57.8477ZM46.3159 61V52.4688H48.853C49.2046 52.4727 49.5484 52.5195 49.8843 52.6094C50.2202 52.6953 50.5191 52.8301 50.7808 53.0137C51.0425 53.1973 51.2515 53.4316 51.4077 53.7168C51.564 54.002 51.6402 54.3438 51.6362 54.7422C51.6323 54.9648 51.5952 55.168 51.5249 55.3516C51.4585 55.5352 51.3667 55.6992 51.2495 55.8438C51.1284 55.9922 50.9937 56.1172 50.8452 56.2188C50.7007 56.3203 50.5249 56.416 50.3179 56.5059V56.5234C50.5327 56.5742 50.7398 56.666 50.939 56.7988C51.1382 56.9316 51.3023 57.0781 51.4312 57.2383C51.5679 57.4141 51.6734 57.6113 51.7476 57.8301C51.8257 58.0488 51.8648 58.2852 51.8648 58.5391C51.8687 58.9375 51.7925 59.2891 51.6362 59.5938C51.48 59.8984 51.271 60.1523 51.0093 60.3555C50.7476 60.5625 50.4448 60.7207 50.1011 60.8301C49.7612 60.9395 49.4097 60.9961 49.0464 61H46.3159ZM47.4058 57.0098V60.0801H49.0757C49.3023 60.0762 49.5171 60.0391 49.7202 59.9688C49.9234 59.8945 50.103 59.793 50.2593 59.6641C50.4155 59.5352 50.5386 59.377 50.6284 59.1895C50.7222 59.002 50.7691 58.7891 50.7691 58.5508C50.773 58.3086 50.732 58.0938 50.646 57.9062C50.564 57.7188 50.4487 57.5586 50.3003 57.4258C50.1519 57.2969 49.978 57.1973 49.7788 57.127C49.5796 57.0566 49.3648 57.0176 49.1343 57.0098H47.4058ZM47.4058 56.1074H48.9175C49.1206 56.1035 49.3198 56.0723 49.5152 56.0137C49.7105 55.9512 49.8843 55.8613 50.0366 55.7441C50.189 55.6309 50.312 55.4902 50.4058 55.3223C50.4995 55.1543 50.5464 54.959 50.5464 54.7363C50.5464 54.498 50.4995 54.2949 50.4058 54.127C50.3159 53.959 50.1948 53.8203 50.0425 53.7109C49.8862 53.6055 49.7066 53.5273 49.5034 53.4766C49.3042 53.4258 49.0991 53.3984 48.8882 53.3945H47.4058V56.1074ZM57.727 58.791H54.8793L54.1937 61H53.1098L55.8637 52.4688H56.7719L59.4789 61H58.4008L57.727 58.791ZM55.1723 57.8477H57.4398L56.3148 54.1445L55.1723 57.8477ZM65.4466 58.8438C65.4466 58.582 65.386 58.3613 65.2649 58.1816C65.1477 58.002 64.9954 57.8496 64.8079 57.7246C64.6204 57.6035 64.4134 57.502 64.1868 57.4199C63.9641 57.3379 63.7493 57.2637 63.5423 57.1973C63.2415 57.0996 62.9348 56.9824 62.6223 56.8457C62.3138 56.7051 62.0325 56.5371 61.7786 56.3418C61.5208 56.1426 61.3098 55.9082 61.1458 55.6387C60.9856 55.3652 60.9055 55.0449 60.9055 54.6777C60.9055 54.3105 60.9856 53.9824 61.1458 53.6934C61.3098 53.4043 61.5227 53.1602 61.7845 52.9609C62.0462 52.7617 62.343 52.6113 62.6751 52.5098C63.0071 52.4043 63.3411 52.3516 63.677 52.3516C64.0481 52.3516 64.4055 52.4141 64.7493 52.5391C65.093 52.6602 65.3977 52.832 65.6634 53.0547C65.929 53.2773 66.1419 53.5469 66.302 53.8633C66.4622 54.1797 66.5462 54.5332 66.554 54.9238H65.4407C65.4095 54.6777 65.3489 54.4551 65.2591 54.2559C65.1692 54.0527 65.0501 53.8789 64.9016 53.7344C64.7532 53.5898 64.5755 53.4785 64.3684 53.4004C64.1653 53.3184 63.9348 53.2773 63.677 53.2773C63.47 53.2773 63.2669 53.3066 63.0677 53.3652C62.8723 53.4238 62.6985 53.5117 62.5462 53.6289C62.3899 53.7461 62.2649 53.8906 62.1712 54.0625C62.0813 54.2344 62.0364 54.4336 62.0364 54.6602C62.0403 54.9062 62.1028 55.1152 62.2239 55.2871C62.345 55.4551 62.4993 55.5977 62.6868 55.7148C62.8704 55.832 63.0696 55.9297 63.2845 56.0078C63.5032 56.0859 63.7083 56.1543 63.8997 56.2129C64.2161 56.3105 64.5325 56.4297 64.8489 56.5703C65.1653 56.707 65.4544 56.8828 65.7161 57.0977C65.9739 57.2969 66.1809 57.541 66.3372 57.8301C66.4973 58.1191 66.5774 58.4531 66.5774 58.832C66.5774 59.2148 66.4915 59.5488 66.3196 59.834C66.1516 60.1191 65.9329 60.3555 65.6634 60.543C65.3938 60.7344 65.0891 60.8789 64.7493 60.9766C64.4095 61.0703 64.0696 61.1172 63.7298 61.1172C63.3235 61.1172 62.9231 61.0488 62.5286 60.9121C62.138 60.7754 61.7981 60.5781 61.5091 60.3203C61.2513 60.0977 61.0462 59.8379 60.8938 59.541C60.7454 59.2402 60.6653 58.9062 60.6536 58.5391H61.761C61.7962 58.8047 61.8684 59.041 61.9778 59.248C62.0872 59.4512 62.2278 59.623 62.3997 59.7637C62.5716 59.9082 62.7688 60.0176 62.9915 60.0918C63.218 60.1621 63.4641 60.1973 63.7298 60.1973C63.9407 60.1973 64.1477 60.1719 64.3509 60.1211C64.5579 60.0664 64.7415 59.9824 64.9016 59.8691C65.0618 59.7598 65.1927 59.6211 65.2942 59.4531C65.3958 59.2812 65.4466 59.0781 65.4466 58.8438ZM73.0021 57.0566H69.4396V60.0801H73.5939V61H68.3556V52.4688H73.5412V53.3945H69.4396V56.1367H73.0021V57.0566ZM75.5245 61V52.4688H77.4991C77.8311 52.4727 78.1436 52.5078 78.4366 52.5742C78.7334 52.6367 79.0069 52.7266 79.2569 52.8438C79.6045 53.0039 79.9112 53.2148 80.1768 53.4766C80.4463 53.7344 80.6612 54.0332 80.8213 54.373C80.9659 54.6621 81.0752 54.9785 81.1495 55.3223C81.2276 55.666 81.2686 56.0332 81.2725 56.4238V57.0508C81.2725 57.4258 81.2354 57.7812 81.1612 58.1172C81.0909 58.4531 80.9873 58.7617 80.8506 59.043C80.71 59.3359 80.5323 59.6016 80.3174 59.8398C80.1026 60.0781 79.8623 60.2812 79.5967 60.4492C79.3155 60.625 78.9971 60.7598 78.6416 60.8535C78.2901 60.9473 77.9092 60.9961 77.4991 61H75.5245ZM76.626 53.3594V60.1152H77.4991C77.8116 60.1113 78.0948 60.0723 78.3487 59.998C78.6065 59.9238 78.835 59.8184 79.0342 59.6816C79.2452 59.541 79.4268 59.3691 79.5791 59.166C79.7354 58.959 79.8584 58.7285 79.9483 58.4746C80.0264 58.2676 80.085 58.0449 80.1241 57.8066C80.1631 57.5645 80.1846 57.3125 80.1885 57.0508V56.4121C80.1846 56.1465 80.1612 55.8926 80.1182 55.6504C80.0791 55.4043 80.0186 55.1758 79.9366 54.9648C79.8311 54.6914 79.6885 54.4453 79.5088 54.2266C79.333 54.0039 79.1162 53.8242 78.8584 53.6875C78.6748 53.5859 78.4698 53.5078 78.2432 53.4531C78.0166 53.3945 77.7686 53.3633 77.4991 53.3594H76.626Z" fill="#091315"/>
<rect x="181" width="173" height="78" rx="2" fill="#A0C8E9"/>
<path d="M203.545 26.4336C203.494 26.8281 203.393 27.1914 203.24 27.5234C203.088 27.8516 202.891 28.1328 202.648 28.3672C202.402 28.6055 202.111 28.791 201.775 28.9238C201.443 29.0527 201.072 29.1172 200.662 29.1172C200.311 29.1172 199.99 29.0684 199.701 28.9707C199.416 28.8691 199.162 28.7305 198.939 28.5547C198.713 28.3789 198.518 28.1719 198.354 27.9336C198.193 27.6953 198.061 27.4355 197.955 27.1543C197.846 26.873 197.764 26.5781 197.709 26.2695C197.658 25.9609 197.631 25.6484 197.627 25.332V24.1426C197.631 23.8262 197.658 23.5137 197.709 23.2051C197.764 22.8965 197.846 22.6016 197.955 22.3203C198.061 22.0391 198.193 21.7793 198.354 21.541C198.518 21.2988 198.713 21.0898 198.939 20.9141C199.162 20.7383 199.416 20.6016 199.701 20.5039C199.986 20.4023 200.307 20.3516 200.662 20.3516C201.088 20.3516 201.469 20.418 201.805 20.5508C202.141 20.6797 202.43 20.8633 202.672 21.1016C202.914 21.3438 203.107 21.6328 203.252 21.9688C203.4 22.3047 203.498 22.6758 203.545 23.082H202.461C202.426 22.8242 202.365 22.584 202.279 22.3613C202.193 22.1387 202.078 21.9434 201.934 21.7754C201.789 21.6074 201.611 21.4766 201.4 21.3828C201.193 21.2852 200.947 21.2363 200.662 21.2363C200.404 21.2363 200.176 21.2793 199.977 21.3652C199.781 21.4473 199.613 21.5605 199.473 21.7051C199.328 21.8496 199.207 22.0176 199.109 22.209C199.016 22.4004 198.939 22.6035 198.881 22.8184C198.822 23.0332 198.779 23.2539 198.752 23.4805C198.729 23.7031 198.717 23.9199 198.717 24.1309V25.332C198.717 25.543 198.729 25.7617 198.752 25.9883C198.779 26.2109 198.822 26.4297 198.881 26.6445C198.939 26.8633 199.016 27.0684 199.109 27.2598C199.203 27.4512 199.322 27.6191 199.467 27.7637C199.611 27.9121 199.781 28.0293 199.977 28.1152C200.172 28.1973 200.4 28.2383 200.662 28.2383C200.947 28.2383 201.193 28.1934 201.4 28.1035C201.611 28.0137 201.789 27.8867 201.934 27.7227C202.078 27.5625 202.193 27.373 202.279 27.1543C202.365 26.9316 202.426 26.6914 202.461 26.4336H203.545ZM210.093 25.2324H206.542V29H205.446V20.4688H210.684V21.3945H206.542V24.3125H210.093V25.2324ZM225.526 26.4336C225.475 26.8281 225.374 27.1914 225.221 27.5234C225.069 27.8516 224.872 28.1328 224.63 28.3672C224.383 28.6055 224.092 28.791 223.756 28.9238C223.424 29.0527 223.053 29.1172 222.643 29.1172C222.292 29.1172 221.971 29.0684 221.682 28.9707C221.397 28.8691 221.143 28.7305 220.921 28.5547C220.694 28.3789 220.499 28.1719 220.335 27.9336C220.174 27.6953 220.042 27.4355 219.936 27.1543C219.827 26.873 219.745 26.5781 219.69 26.2695C219.639 25.9609 219.612 25.6484 219.608 25.332V24.1426C219.612 23.8262 219.639 23.5137 219.69 23.2051C219.745 22.8965 219.827 22.6016 219.936 22.3203C220.042 22.0391 220.174 21.7793 220.335 21.541C220.499 21.2988 220.694 21.0898 220.921 20.9141C221.143 20.7383 221.397 20.6016 221.682 20.5039C221.967 20.4023 222.288 20.3516 222.643 20.3516C223.069 20.3516 223.45 20.418 223.786 20.5508C224.122 20.6797 224.411 20.8633 224.653 21.1016C224.895 21.3438 225.089 21.6328 225.233 21.9688C225.381 22.3047 225.479 22.6758 225.526 23.082H224.442C224.407 22.8242 224.346 22.584 224.26 22.3613C224.174 22.1387 224.059 21.9434 223.915 21.7754C223.77 21.6074 223.592 21.4766 223.381 21.3828C223.174 21.2852 222.928 21.2363 222.643 21.2363C222.385 21.2363 222.157 21.2793 221.958 21.3652C221.762 21.4473 221.594 21.5605 221.454 21.7051C221.309 21.8496 221.188 22.0176 221.09 22.209C220.997 22.4004 220.921 22.6035 220.862 22.8184C220.803 23.0332 220.76 23.2539 220.733 23.4805C220.71 23.7031 220.698 23.9199 220.698 24.1309V25.332C220.698 25.543 220.71 25.7617 220.733 25.9883C220.76 26.2109 220.803 26.4297 220.862 26.6445C220.921 26.8633 220.997 27.0684 221.09 27.2598C221.184 27.4512 221.303 27.6191 221.448 27.7637C221.592 27.9121 221.762 28.0293 221.958 28.1152C222.153 28.1973 222.381 28.2383 222.643 28.2383C222.928 28.2383 223.174 28.1934 223.381 28.1035C223.592 28.0137 223.77 27.8867 223.915 27.7227C224.059 27.5625 224.174 27.373 224.26 27.1543C224.346 26.9316 224.407 26.6914 224.442 26.4336H225.526ZM232.021 25.0566H228.459V28.0801H232.613V29H227.375V20.4688H232.56V21.3945H228.459V24.1367H232.021V25.0566ZM239.998 29H238.897L235.586 22.625L235.569 29H234.473V20.4688H235.575L238.885 26.832L238.903 20.4688H239.998V29ZM247.736 21.3945H245.099V29H244.044V21.3945H241.408V20.4688H247.736V21.3945ZM252.133 25.5195H250.428V29H249.35V20.4688H251.852C252.25 20.4766 252.625 20.5332 252.977 20.6387C253.328 20.7441 253.637 20.9023 253.903 21.1133C254.164 21.3242 254.369 21.5898 254.518 21.9102C254.67 22.2266 254.746 22.5996 254.746 23.0293C254.746 23.3066 254.705 23.5605 254.623 23.791C254.545 24.0215 254.436 24.2305 254.295 24.418C254.154 24.6055 253.986 24.7715 253.791 24.916C253.596 25.0605 253.381 25.1836 253.147 25.2852L254.957 28.9297L254.951 29H253.809L252.133 25.5195ZM250.428 24.6289H251.881C252.123 24.625 252.352 24.5879 252.567 24.5176C252.781 24.4434 252.971 24.3379 253.135 24.2012C253.295 24.0645 253.422 23.8984 253.516 23.7031C253.61 23.5039 253.656 23.2754 253.656 23.0176C253.656 22.7441 253.611 22.5059 253.522 22.3027C253.432 22.0957 253.307 21.9219 253.147 21.7812C252.986 21.6445 252.795 21.541 252.572 21.4707C252.354 21.4004 252.113 21.3633 251.852 21.3594H250.428V24.6289ZM261.329 25.0566H257.767V28.0801H261.921V29H256.683V20.4688H261.868V21.3945H257.767V24.1367H261.329V25.0566Z" fill="#091315"/>
<rect y="108" width="173" height="78" rx="24" fill="#FCC5C5"/>
<path d="M21.4844 134.844C21.4844 134.582 21.4238 134.361 21.3027 134.182C21.1855 134.002 21.0332 133.85 20.8457 133.725C20.6582 133.604 20.4512 133.502 20.2246 133.42C20.002 133.338 19.7871 133.264 19.5801 133.197C19.2793 133.1 18.9727 132.982 18.6602 132.846C18.3516 132.705 18.0703 132.537 17.8164 132.342C17.5586 132.143 17.3477 131.908 17.1836 131.639C17.0234 131.365 16.9434 131.045 16.9434 130.678C16.9434 130.311 17.0234 129.982 17.1836 129.693C17.3477 129.404 17.5605 129.16 17.8223 128.961C18.084 128.762 18.3809 128.611 18.7129 128.51C19.0449 128.404 19.3789 128.352 19.7148 128.352C20.0859 128.352 20.4434 128.414 20.7871 128.539C21.1309 128.66 21.4355 128.832 21.7012 129.055C21.9668 129.277 22.1797 129.547 22.3398 129.863C22.5 130.18 22.584 130.533 22.5918 130.924H21.4785C21.4473 130.678 21.3867 130.455 21.2969 130.256C21.207 130.053 21.0879 129.879 20.9395 129.734C20.791 129.59 20.6133 129.479 20.4062 129.4C20.2031 129.318 19.9727 129.277 19.7148 129.277C19.5078 129.277 19.3047 129.307 19.1055 129.365C18.9102 129.424 18.7363 129.512 18.584 129.629C18.4277 129.746 18.3027 129.891 18.209 130.062C18.1191 130.234 18.0742 130.434 18.0742 130.66C18.0781 130.906 18.1406 131.115 18.2617 131.287C18.3828 131.455 18.5371 131.598 18.7246 131.715C18.9082 131.832 19.1074 131.93 19.3223 132.008C19.541 132.086 19.7461 132.154 19.9375 132.213C20.2539 132.311 20.5703 132.43 20.8867 132.57C21.2031 132.707 21.4922 132.883 21.7539 133.098C22.0117 133.297 22.2188 133.541 22.375 133.83C22.5352 134.119 22.6152 134.453 22.6152 134.832C22.6152 135.215 22.5293 135.549 22.3574 135.834C22.1895 136.119 21.9707 136.355 21.7012 136.543C21.4316 136.734 21.127 136.879 20.7871 136.977C20.4473 137.07 20.1074 137.117 19.7676 137.117C19.3613 137.117 18.9609 137.049 18.5664 136.912C18.1758 136.775 17.8359 136.578 17.5469 136.32C17.2891 136.098 17.084 135.838 16.9316 135.541C16.7832 135.24 16.7031 134.906 16.6914 134.539H17.7988C17.834 134.805 17.9062 135.041 18.0156 135.248C18.125 135.451 18.2656 135.623 18.4375 135.764C18.6094 135.908 18.8066 136.018 19.0293 136.092C19.2559 136.162 19.502 136.197 19.7676 136.197C19.9785 136.197 20.1855 136.172 20.3887 136.121C20.5957 136.066 20.7793 135.982 20.9395 135.869C21.0996 135.76 21.2305 135.621 21.332 135.453C21.4336 135.281 21.4844 135.078 21.4844 134.844ZM25.5302 133.578V137H24.4462V128.469H27.2118C27.5946 128.477 27.9559 128.537 28.2958 128.65C28.6395 128.764 28.9403 128.928 29.1981 129.143C29.4559 129.357 29.6591 129.623 29.8075 129.939C29.9598 130.256 30.036 130.619 30.036 131.029C30.036 131.439 29.9598 131.803 29.8075 132.119C29.6591 132.432 29.4559 132.695 29.1981 132.91C28.9403 133.125 28.6395 133.289 28.2958 133.402C27.9559 133.516 27.5946 133.574 27.2118 133.578H25.5302ZM25.5302 132.688H27.2118C27.4618 132.684 27.6923 132.645 27.9032 132.57C28.1141 132.492 28.2977 132.383 28.454 132.242C28.6102 132.102 28.7313 131.932 28.8173 131.732C28.9071 131.529 28.952 131.299 28.952 131.041C28.952 130.783 28.9071 130.551 28.8173 130.344C28.7313 130.137 28.6122 129.961 28.4598 129.816C28.3036 129.672 28.118 129.561 27.9032 129.482C27.6923 129.404 27.4618 129.363 27.2118 129.359H25.5302V132.688ZM34.4978 133.52H32.7927V137H31.7146V128.469H34.2166C34.615 128.477 34.99 128.533 35.3416 128.639C35.6931 128.744 36.0017 128.902 36.2673 129.113C36.5291 129.324 36.7341 129.59 36.8826 129.91C37.0349 130.227 37.1111 130.6 37.1111 131.029C37.1111 131.307 37.0701 131.561 36.988 131.791C36.9099 132.021 36.8005 132.23 36.6599 132.418C36.5193 132.605 36.3513 132.771 36.156 132.916C35.9607 133.061 35.7459 133.184 35.5115 133.285L37.322 136.93L37.3162 137H36.1736L34.4978 133.52ZM32.7927 132.629H34.2459C34.488 132.625 34.7166 132.588 34.9314 132.518C35.1462 132.443 35.3357 132.338 35.4998 132.201C35.6599 132.064 35.7869 131.898 35.8806 131.703C35.9744 131.504 36.0212 131.275 36.0212 131.018C36.0212 130.744 35.9763 130.506 35.8865 130.303C35.7966 130.096 35.6716 129.922 35.5115 129.781C35.3513 129.645 35.1599 129.541 34.9373 129.471C34.7185 129.4 34.4783 129.363 34.2166 129.359H32.7927V132.629ZM43.694 133.057H40.1315V136.08H44.2858V137H39.0475V128.469H44.233V129.395H40.1315V132.137H43.694V133.057ZM50.3999 134.791H47.5523L46.8667 137H45.7827L48.5366 128.469H49.4448L52.1519 137H51.0737L50.3999 134.791ZM47.8452 133.848H50.1128L48.9878 130.145L47.8452 133.848ZM53.5434 137V128.469H55.518C55.85 128.473 56.1625 128.508 56.4555 128.574C56.7523 128.637 57.0258 128.727 57.2758 128.844C57.6234 129.004 57.9301 129.215 58.1957 129.477C58.4652 129.734 58.6801 130.033 58.8402 130.373C58.9848 130.662 59.0941 130.979 59.1684 131.322C59.2465 131.666 59.2875 132.033 59.2914 132.424V133.051C59.2914 133.426 59.2543 133.781 59.1801 134.117C59.1098 134.453 59.0062 134.762 58.8695 135.043C58.7289 135.336 58.5512 135.602 58.3363 135.84C58.1215 136.078 57.8812 136.281 57.6156 136.449C57.3344 136.625 57.016 136.76 56.6605 136.854C56.309 136.947 55.9281 136.996 55.518 137H53.5434ZM54.6449 129.359V136.115H55.518C55.8305 136.111 56.1137 136.072 56.3676 135.998C56.6254 135.924 56.8539 135.818 57.0531 135.682C57.2641 135.541 57.4457 135.369 57.598 135.166C57.7543 134.959 57.8773 134.729 57.9672 134.475C58.0453 134.268 58.1039 134.045 58.143 133.807C58.182 133.564 58.2035 133.312 58.2074 133.051V132.412C58.2035 132.146 58.1801 131.893 58.1371 131.65C58.098 131.404 58.0375 131.176 57.9555 130.965C57.85 130.691 57.7074 130.445 57.5277 130.227C57.352 130.004 57.1352 129.824 56.8773 129.688C56.6937 129.586 56.4887 129.508 56.2621 129.453C56.0355 129.395 55.7875 129.363 55.518 129.359H54.6449ZM65.4466 134.844C65.4466 134.582 65.386 134.361 65.2649 134.182C65.1477 134.002 64.9954 133.85 64.8079 133.725C64.6204 133.604 64.4134 133.502 64.1868 133.42C63.9641 133.338 63.7493 133.264 63.5423 133.197C63.2415 133.1 62.9348 132.982 62.6223 132.846C62.3138 132.705 62.0325 132.537 61.7786 132.342C61.5208 132.143 61.3098 131.908 61.1458 131.639C60.9856 131.365 60.9055 131.045 60.9055 130.678C60.9055 130.311 60.9856 129.982 61.1458 129.693C61.3098 129.404 61.5227 129.16 61.7845 128.961C62.0462 128.762 62.343 128.611 62.6751 128.51C63.0071 128.404 63.3411 128.352 63.677 128.352C64.0481 128.352 64.4055 128.414 64.7493 128.539C65.093 128.66 65.3977 128.832 65.6634 129.055C65.929 129.277 66.1419 129.547 66.302 129.863C66.4622 130.18 66.5462 130.533 66.554 130.924H65.4407C65.4095 130.678 65.3489 130.455 65.2591 130.256C65.1692 130.053 65.0501 129.879 64.9016 129.734C64.7532 129.59 64.5755 129.479 64.3684 129.4C64.1653 129.318 63.9348 129.277 63.677 129.277C63.47 129.277 63.2669 129.307 63.0677 129.365C62.8723 129.424 62.6985 129.512 62.5462 129.629C62.3899 129.746 62.2649 129.891 62.1712 130.062C62.0813 130.234 62.0364 130.434 62.0364 130.66C62.0403 130.906 62.1028 131.115 62.2239 131.287C62.345 131.455 62.4993 131.598 62.6868 131.715C62.8704 131.832 63.0696 131.93 63.2845 132.008C63.5032 132.086 63.7083 132.154 63.8997 132.213C64.2161 132.311 64.5325 132.43 64.8489 132.57C65.1653 132.707 65.4544 132.883 65.7161 133.098C65.9739 133.297 66.1809 133.541 66.3372 133.83C66.4973 134.119 66.5774 134.453 66.5774 134.832C66.5774 135.215 66.4915 135.549 66.3196 135.834C66.1516 136.119 65.9329 136.355 65.6634 136.543C65.3938 136.734 65.0891 136.879 64.7493 136.977C64.4095 137.07 64.0696 137.117 63.7298 137.117C63.3235 137.117 62.9231 137.049 62.5286 136.912C62.138 136.775 61.7981 136.578 61.5091 136.32C61.2513 136.098 61.0462 135.838 60.8938 135.541C60.7454 135.24 60.6653 134.906 60.6536 134.539H61.761C61.7962 134.805 61.8684 135.041 61.9778 135.248C62.0872 135.451 62.2278 135.623 62.3997 135.764C62.5716 135.908 62.7688 136.018 62.9915 136.092C63.218 136.162 63.4641 136.197 63.7298 136.197C63.9407 136.197 64.1477 136.172 64.3509 136.121C64.5579 136.066 64.7415 135.982 64.9016 135.869C65.0618 135.76 65.1927 135.621 65.2942 135.453C65.3958 135.281 65.4466 135.078 65.4466 134.844ZM73.6584 137H72.633V133.057H69.1349V137H68.1154V128.469H69.1349V132.137H72.633V128.469H73.6584V137ZM80.3291 133.057H76.7666V136.08H80.9209V137H75.6827V128.469H80.8682V129.395H76.7666V132.137H80.3291V133.057ZM87.6562 133.057H84.0937V136.08H88.248V137H83.0097V128.469H88.1952V129.395H84.0937V132.137H87.6562V133.057ZM96.0437 129.395H93.407V137H92.3523V129.395H89.7156V128.469H96.0437V129.395ZM110.299 128.469L110.311 134.246C110.311 134.645 110.241 135.018 110.1 135.365C109.96 135.713 109.766 136.016 109.52 136.273C109.274 136.535 108.981 136.742 108.641 136.895C108.301 137.043 107.928 137.117 107.522 137.117C107.108 137.117 106.731 137.043 106.391 136.895C106.051 136.746 105.76 136.541 105.518 136.279C105.276 136.021 105.086 135.719 104.95 135.371C104.813 135.02 104.743 134.645 104.739 134.246L104.751 128.469H105.782L105.805 134.246C105.809 134.5 105.848 134.744 105.922 134.979C106.001 135.213 106.112 135.42 106.256 135.6C106.397 135.779 106.573 135.924 106.784 136.033C106.999 136.143 107.245 136.197 107.522 136.197C107.799 136.197 108.044 136.145 108.254 136.039C108.465 135.93 108.643 135.783 108.788 135.6C108.928 135.42 109.036 135.213 109.11 134.979C109.184 134.744 109.225 134.5 109.233 134.246L109.251 128.469H110.299ZM113.455 133.578V137H112.371V128.469H115.136C115.519 128.477 115.88 128.537 116.22 128.65C116.564 128.764 116.865 128.928 117.122 129.143C117.38 129.357 117.583 129.623 117.732 129.939C117.884 130.256 117.96 130.619 117.96 131.029C117.96 131.439 117.884 131.803 117.732 132.119C117.583 132.432 117.38 132.695 117.122 132.91C116.865 133.125 116.564 133.289 116.22 133.402C115.88 133.516 115.519 133.574 115.136 133.578H113.455ZM113.455 132.688H115.136C115.386 132.684 115.617 132.645 115.828 132.57C116.039 132.492 116.222 132.383 116.378 132.242C116.535 132.102 116.656 131.932 116.742 131.732C116.831 131.529 116.876 131.299 116.876 131.041C116.876 130.783 116.831 130.551 116.742 130.344C116.656 130.137 116.537 129.961 116.384 129.816C116.228 129.672 116.042 129.561 115.828 129.482C115.617 129.404 115.386 129.363 115.136 129.359H113.455V132.688ZM120.823 136.08H124.994V137H119.739V128.469H120.823V136.08ZM132.474 133.227C132.47 133.531 132.443 133.84 132.392 134.152C132.345 134.461 132.271 134.76 132.169 135.049C132.068 135.338 131.937 135.607 131.777 135.857C131.62 136.107 131.433 136.326 131.214 136.514C130.995 136.701 130.743 136.85 130.458 136.959C130.177 137.064 129.861 137.117 129.509 137.117C129.157 137.117 128.839 137.064 128.554 136.959C128.273 136.85 128.023 136.701 127.804 136.514C127.585 136.326 127.396 136.107 127.236 135.857C127.075 135.604 126.945 135.332 126.843 135.043C126.738 134.754 126.659 134.455 126.609 134.146C126.558 133.838 126.53 133.531 126.527 133.227V132.254C126.53 131.949 126.556 131.643 126.603 131.334C126.654 131.021 126.732 130.721 126.837 130.432C126.939 130.143 127.068 129.873 127.224 129.623C127.384 129.369 127.573 129.146 127.792 128.955C128.011 128.768 128.261 128.621 128.542 128.516C128.827 128.406 129.146 128.352 129.497 128.352C129.849 128.352 130.167 128.406 130.452 128.516C130.738 128.621 130.989 128.768 131.208 128.955C131.427 129.143 131.614 129.363 131.771 129.617C131.931 129.867 132.064 130.137 132.169 130.426C132.271 130.715 132.345 131.016 132.392 131.328C132.443 131.641 132.47 131.949 132.474 132.254V133.227ZM131.402 132.242C131.398 132.039 131.384 131.828 131.361 131.609C131.337 131.387 131.298 131.166 131.243 130.947C131.185 130.732 131.109 130.527 131.015 130.332C130.921 130.133 130.804 129.957 130.663 129.805C130.523 129.656 130.357 129.539 130.165 129.453C129.974 129.363 129.751 129.318 129.497 129.318C129.247 129.318 129.027 129.363 128.835 129.453C128.644 129.543 128.478 129.662 128.337 129.811C128.196 129.963 128.079 130.139 127.986 130.338C127.892 130.533 127.818 130.738 127.763 130.953C127.704 131.172 127.661 131.393 127.634 131.615C127.611 131.834 127.597 132.043 127.593 132.242V133.227C127.597 133.426 127.611 133.637 127.634 133.859C127.661 134.082 127.704 134.301 127.763 134.516C127.821 134.734 127.898 134.943 127.991 135.143C128.085 135.342 128.202 135.516 128.343 135.664C128.484 135.816 128.65 135.938 128.841 136.027C129.032 136.117 129.255 136.162 129.509 136.162C129.763 136.162 129.986 136.117 130.177 136.027C130.372 135.938 130.54 135.816 130.681 135.664C130.818 135.516 130.931 135.344 131.021 135.148C131.114 134.949 131.191 134.74 131.249 134.521C131.304 134.307 131.341 134.088 131.361 133.865C131.384 133.643 131.398 133.43 131.402 133.227V132.242ZM138.324 134.791H135.477L134.791 137H133.707L136.461 128.469H137.369L140.076 137H138.998L138.324 134.791ZM135.77 133.848H138.037L136.912 130.145L135.77 133.848ZM141.468 137V128.469H143.442C143.774 128.473 144.087 128.508 144.38 128.574C144.677 128.637 144.95 128.727 145.2 128.844C145.548 129.004 145.854 129.215 146.12 129.477C146.39 129.734 146.604 130.033 146.765 130.373C146.909 130.662 147.019 130.979 147.093 131.322C147.171 131.666 147.212 132.033 147.216 132.424V133.051C147.216 133.426 147.179 133.781 147.104 134.117C147.034 134.453 146.931 134.762 146.794 135.043C146.653 135.336 146.476 135.602 146.261 135.84C146.046 136.078 145.806 136.281 145.54 136.449C145.259 136.625 144.94 136.76 144.585 136.854C144.233 136.947 143.853 136.996 143.442 137H141.468ZM142.569 129.359V136.115H143.442C143.755 136.111 144.038 136.072 144.292 135.998C144.55 135.924 144.778 135.818 144.978 135.682C145.188 135.541 145.37 135.369 145.522 135.166C145.679 134.959 145.802 134.729 145.892 134.475C145.97 134.268 146.028 134.045 146.067 133.807C146.106 133.564 146.128 133.312 146.132 133.051V132.412C146.128 132.146 146.104 131.893 146.061 131.65C146.022 131.404 145.962 131.176 145.88 130.965C145.774 130.691 145.632 130.445 145.452 130.227C145.276 130.004 145.06 129.824 144.802 129.688C144.618 129.586 144.413 129.508 144.186 129.453C143.96 129.395 143.712 129.363 143.442 129.359H142.569Z" fill="#091315"/>
<rect x="181" y="108" width="173" height="78" rx="24" fill="#FCC5C5"/>
<path d="M197.908 137V128.469H199.883C200.215 128.473 200.527 128.508 200.82 128.574C201.117 128.637 201.391 128.727 201.641 128.844C201.988 129.004 202.295 129.215 202.561 129.477C202.83 129.734 203.045 130.033 203.205 130.373C203.35 130.662 203.459 130.979 203.533 131.322C203.611 131.666 203.652 132.033 203.656 132.424V133.051C203.656 133.426 203.619 133.781 203.545 134.117C203.475 134.453 203.371 134.762 203.234 135.043C203.094 135.336 202.916 135.602 202.701 135.84C202.486 136.078 202.246 136.281 201.98 136.449C201.699 136.625 201.381 136.76 201.025 136.854C200.674 136.947 200.293 136.996 199.883 137H197.908ZM199.01 129.359V136.115H199.883C200.195 136.111 200.479 136.072 200.732 135.998C200.99 135.924 201.219 135.818 201.418 135.682C201.629 135.541 201.811 135.369 201.963 135.166C202.119 134.959 202.242 134.729 202.332 134.475C202.41 134.268 202.469 134.045 202.508 133.807C202.547 133.564 202.568 133.312 202.572 133.051V132.412C202.568 132.146 202.545 131.893 202.502 131.65C202.463 131.404 202.402 131.176 202.32 130.965C202.215 130.691 202.072 130.445 201.893 130.227C201.717 130.004 201.5 129.824 201.242 129.688C201.059 129.586 200.854 129.508 200.627 129.453C200.4 129.395 200.152 129.363 199.883 129.359H199.01ZM209.419 134.791H206.571L205.886 137H204.802L207.556 128.469H208.464L211.171 137H210.093L209.419 134.791ZM206.864 133.848H209.132L208.007 130.145L206.864 133.848ZM218.427 129.395H215.791V137H214.736V129.395H212.099V128.469H218.427V129.395ZM224.073 134.791H221.225L220.54 137H219.456L222.21 128.469H223.118L225.825 137H224.747L224.073 134.791ZM221.518 133.848H223.786L222.661 130.145L221.518 133.848ZM232.068 133.713H227.585V132.822H232.068V133.713ZM239.348 133.057H235.786V136.08H239.94V137H234.702V128.469H239.887V129.395H235.786V132.137H239.348V133.057ZM247.325 137H246.224L242.913 130.625L242.896 137H241.8V128.469H242.902L246.212 134.832L246.23 128.469H247.325V137ZM255.063 129.395H252.426V137H251.371V129.395H248.735V128.469H255.063V129.395ZM259.46 133.52H257.755V137H256.677V128.469H259.179C259.577 128.477 259.952 128.533 260.304 128.639C260.655 128.744 260.964 128.902 261.23 129.113C261.491 129.324 261.696 129.59 261.845 129.91C261.997 130.227 262.073 130.6 262.073 131.029C262.073 131.307 262.032 131.561 261.95 131.791C261.872 132.021 261.763 132.23 261.622 132.418C261.481 132.605 261.314 132.771 261.118 132.916C260.923 133.061 260.708 133.184 260.474 133.285L262.284 136.93L262.278 137H261.136L259.46 133.52ZM257.755 132.629H259.208C259.45 132.625 259.679 132.588 259.894 132.518C260.108 132.443 260.298 132.338 260.462 132.201C260.622 132.064 260.749 131.898 260.843 131.703C260.937 131.504 260.983 131.275 260.983 131.018C260.983 130.744 260.939 130.506 260.849 130.303C260.759 130.096 260.634 129.922 260.474 129.781C260.314 129.645 260.122 129.541 259.899 129.471C259.681 129.4 259.44 129.363 259.179 129.359H257.755V132.629ZM266.476 132.752L268.422 128.469H269.652L266.998 133.818L266.98 137H265.973L265.955 133.818L263.301 128.469H264.537L266.476 132.752ZM283.082 134.844C283.082 134.582 283.021 134.361 282.9 134.182C282.783 134.002 282.631 133.85 282.443 133.725C282.256 133.604 282.049 133.502 281.822 133.42C281.599 133.338 281.384 133.264 281.177 133.197C280.877 133.1 280.57 132.982 280.257 132.846C279.949 132.705 279.668 132.537 279.414 132.342C279.156 132.143 278.945 131.908 278.781 131.639C278.621 131.365 278.541 131.045 278.541 130.678C278.541 130.311 278.621 129.982 278.781 129.693C278.945 129.404 279.158 129.16 279.42 128.961C279.681 128.762 279.978 128.611 280.31 128.51C280.642 128.404 280.976 128.352 281.312 128.352C281.683 128.352 282.041 128.414 282.384 128.539C282.728 128.66 283.033 128.832 283.299 129.055C283.564 129.277 283.777 129.547 283.937 129.863C284.097 130.18 284.181 130.533 284.189 130.924H283.076C283.045 130.678 282.984 130.455 282.894 130.256C282.804 130.053 282.685 129.879 282.537 129.734C282.388 129.59 282.211 129.479 282.004 129.4C281.8 129.318 281.57 129.277 281.312 129.277C281.105 129.277 280.902 129.307 280.703 129.365C280.507 129.424 280.334 129.512 280.181 129.629C280.025 129.746 279.9 129.891 279.806 130.062C279.716 130.234 279.672 130.434 279.672 130.66C279.675 130.906 279.738 131.115 279.859 131.287C279.98 131.455 280.134 131.598 280.322 131.715C280.506 131.832 280.705 131.93 280.92 132.008C281.138 132.086 281.343 132.154 281.535 132.213C281.851 132.311 282.168 132.43 282.484 132.57C282.8 132.707 283.09 132.883 283.351 133.098C283.609 133.297 283.816 133.541 283.972 133.83C284.132 134.119 284.213 134.453 284.213 134.832C284.213 135.215 284.127 135.549 283.955 135.834C283.787 136.119 283.568 136.355 283.299 136.543C283.029 136.734 282.724 136.879 282.384 136.977C282.045 137.07 281.705 137.117 281.365 137.117C280.959 137.117 280.558 137.049 280.164 136.912C279.773 136.775 279.433 136.578 279.144 136.32C278.886 136.098 278.681 135.838 278.529 135.541C278.381 135.24 278.3 134.906 278.289 134.539H279.396C279.431 134.805 279.504 135.041 279.613 135.248C279.722 135.451 279.863 135.623 280.035 135.764C280.207 135.908 280.404 136.018 280.627 136.092C280.853 136.162 281.099 136.197 281.365 136.197C281.576 136.197 281.783 136.172 281.986 136.121C282.193 136.066 282.377 135.982 282.537 135.869C282.697 135.76 282.828 135.621 282.929 135.453C283.031 135.281 283.082 135.078 283.082 134.844ZM291.493 133.227C291.489 133.531 291.461 133.84 291.411 134.152C291.364 134.461 291.29 134.76 291.188 135.049C291.086 135.338 290.956 135.607 290.795 135.857C290.639 136.107 290.452 136.326 290.233 136.514C290.014 136.701 289.762 136.85 289.477 136.959C289.196 137.064 288.879 137.117 288.528 137.117C288.176 137.117 287.858 137.064 287.573 136.959C287.292 136.85 287.042 136.701 286.823 136.514C286.604 136.326 286.415 136.107 286.254 135.857C286.094 135.604 285.963 135.332 285.862 135.043C285.756 134.754 285.678 134.455 285.628 134.146C285.577 133.838 285.549 133.531 285.545 133.227V132.254C285.549 131.949 285.575 131.643 285.622 131.334C285.672 131.021 285.751 130.721 285.856 130.432C285.958 130.143 286.086 129.873 286.243 129.623C286.403 129.369 286.592 129.146 286.811 128.955C287.03 128.768 287.28 128.621 287.561 128.516C287.846 128.406 288.165 128.352 288.516 128.352C288.868 128.352 289.186 128.406 289.471 128.516C289.756 128.621 290.008 128.768 290.227 128.955C290.446 129.143 290.633 129.363 290.79 129.617C290.95 129.867 291.083 130.137 291.188 130.426C291.29 130.715 291.364 131.016 291.411 131.328C291.461 131.641 291.489 131.949 291.493 132.254V133.227ZM290.42 132.242C290.417 132.039 290.403 131.828 290.379 131.609C290.356 131.387 290.317 131.166 290.262 130.947C290.204 130.732 290.128 130.527 290.034 130.332C289.94 130.133 289.823 129.957 289.682 129.805C289.542 129.656 289.376 129.539 289.184 129.453C288.993 129.363 288.77 129.318 288.516 129.318C288.266 129.318 288.045 129.363 287.854 129.453C287.663 129.543 287.497 129.662 287.356 129.811C287.215 129.963 287.098 130.139 287.004 130.338C286.911 130.533 286.836 130.738 286.782 130.953C286.723 131.172 286.68 131.393 286.653 131.615C286.629 131.834 286.616 132.043 286.612 132.242V133.227C286.616 133.426 286.629 133.637 286.653 133.859C286.68 134.082 286.723 134.301 286.782 134.516C286.84 134.734 286.917 134.943 287.01 135.143C287.104 135.342 287.221 135.516 287.362 135.664C287.503 135.816 287.669 135.938 287.86 136.027C288.051 136.117 288.274 136.162 288.528 136.162C288.782 136.162 289.004 136.117 289.196 136.027C289.391 135.938 289.559 135.816 289.7 135.664C289.836 135.516 289.95 135.344 290.04 135.148C290.133 134.949 290.21 134.74 290.268 134.521C290.323 134.307 290.36 134.088 290.379 133.865C290.403 133.643 290.417 133.43 290.42 133.227V132.242ZM298.017 133.232H294.466V137H293.371V128.469H298.609V129.395H294.466V132.312H298.017V133.232ZM306.352 129.395H303.715V137H302.66V129.395H300.024V128.469H306.352V129.395ZM308.37 137L307.333 128.469H308.364L308.98 134.352L309.015 134.691L309.079 134.34L310.111 128.469H311.054L312.091 134.346L312.155 134.691L312.191 134.34L312.806 128.469H313.831L312.794 137H311.687L310.65 130.93L310.591 130.572L310.527 130.936L309.484 137H308.37ZM319.324 134.791H316.477L315.791 137H314.707L317.461 128.469H318.369L321.076 137H319.998L319.324 134.791ZM316.77 133.848H319.037L317.912 130.145L316.77 133.848ZM325.403 133.52H323.698V137H322.62V128.469H325.122C325.52 128.477 325.895 128.533 326.247 128.639C326.599 128.744 326.907 128.902 327.173 129.113C327.435 129.324 327.64 129.59 327.788 129.91C327.94 130.227 328.017 130.6 328.017 131.029C328.017 131.307 327.976 131.561 327.894 131.791C327.815 132.021 327.706 132.23 327.565 132.418C327.425 132.605 327.257 132.771 327.061 132.916C326.866 133.061 326.651 133.184 326.417 133.285L328.228 136.93L328.222 137H327.079L325.403 133.52ZM323.698 132.629H325.151C325.394 132.625 325.622 132.588 325.837 132.518C326.052 132.443 326.241 132.338 326.405 132.201C326.565 132.064 326.692 131.898 326.786 131.703C326.88 131.504 326.927 131.275 326.927 131.018C326.927 130.744 326.882 130.506 326.792 130.303C326.702 130.096 326.577 129.922 326.417 129.781C326.257 129.645 326.065 129.541 325.843 129.471C325.624 129.4 325.384 129.363 325.122 129.359H323.698V132.629ZM334.599 133.057H331.037V136.08H335.191V137H329.953V128.469H335.139V129.395H331.037V132.137H334.599V133.057Z" fill="#091315"/>
<path d="M86.6464 104.354C86.8417 104.549 87.1583 104.549 87.3536 104.354L90.5355 101.172C90.7308 100.976 90.7308 100.66 90.5355 100.464C90.3403 100.269 90.0237 100.269 89.8284 100.464L87 103.293L84.1716 100.464C83.9763 100.269 83.6597 100.269 83.4645 100.464C83.2692 100.66 83.2692 100.976 83.4645 101.172L86.6464 104.354ZM87 80L86.5 80L86.5 104L87 104L87.5 104L87.5 80L87 80Z" fill="#091315"/>
<path d="M267.646 104.354C267.842 104.549 268.158 104.549 268.354 104.354L271.536 101.172C271.731 100.976 271.731 100.66 271.536 100.464C271.34 100.269 271.024 100.269 270.828 100.464L268 103.293L265.172 100.464C264.976 100.269 264.66 100.269 264.464 100.464C264.269 100.66 264.269 100.976 264.464 101.172L267.646 104.354ZM268 80L267.5 80L267.5 104L268 104L268.5 104L268.5 80L268 80Z" fill="#091315"/>
<path d="M86.6464 214.354C86.8417 214.549 87.1583 214.549 87.3536 214.354L90.5355 211.172C90.7308 210.976 90.7308 210.66 90.5355 210.464C90.3403 210.269 90.0237 210.269 89.8284 210.464L87 213.293L84.1716 210.464C83.9763 210.269 83.6597 210.269 83.4645 210.464C83.2692 210.66 83.2692 210.976 83.4645 211.172L86.6464 214.354ZM87 190L86.5 190L86.5 214L87 214L87.5 214L87.5 190L87 190Z" fill="#091315"/>
<path d="M267.646 214.354C267.842 214.549 268.158 214.549 268.354 214.354L271.536 211.172C271.731 210.976 271.731 210.66 271.536 210.464C271.34 210.269 271.024 210.269 270.828 210.464L268 213.293L265.172 210.464C264.976 210.269 264.66 210.269 264.464 210.464C264.269 210.66 264.269 210.976 264.464 211.172L267.646 214.354ZM268 190L267.5 190L267.5 214L268 214L268.5 214L268.5 190L268 190Z" fill="#091315"/>
<rect y="218" width="353" height="172" rx="2" fill="#99D9E4"/>
<path d="M21.4844 244.844C21.4844 244.582 21.4238 244.361 21.3027 244.182C21.1855 244.002 21.0332 243.85 20.8457 243.725C20.6582 243.604 20.4512 243.502 20.2246 243.42C20.002 243.338 19.7871 243.264 19.5801 243.197C19.2793 243.1 18.9727 242.982 18.6602 242.846C18.3516 242.705 18.0703 242.537 17.8164 242.342C17.5586 242.143 17.3477 241.908 17.1836 241.639C17.0234 241.365 16.9434 241.045 16.9434 240.678C16.9434 240.311 17.0234 239.982 17.1836 239.693C17.3477 239.404 17.5605 239.16 17.8223 238.961C18.084 238.762 18.3809 238.611 18.7129 238.51C19.0449 238.404 19.3789 238.352 19.7148 238.352C20.0859 238.352 20.4434 238.414 20.7871 238.539C21.1309 238.66 21.4355 238.832 21.7012 239.055C21.9668 239.277 22.1797 239.547 22.3398 239.863C22.5 240.18 22.584 240.533 22.5918 240.924H21.4785C21.4473 240.678 21.3867 240.455 21.2969 240.256C21.207 240.053 21.0879 239.879 20.9395 239.734C20.791 239.59 20.6133 239.479 20.4062 239.4C20.2031 239.318 19.9727 239.277 19.7148 239.277C19.5078 239.277 19.3047 239.307 19.1055 239.365C18.9102 239.424 18.7363 239.512 18.584 239.629C18.4277 239.746 18.3027 239.891 18.209 240.062C18.1191 240.234 18.0742 240.434 18.0742 240.66C18.0781 240.906 18.1406 241.115 18.2617 241.287C18.3828 241.455 18.5371 241.598 18.7246 241.715C18.9082 241.832 19.1074 241.93 19.3223 242.008C19.541 242.086 19.7461 242.154 19.9375 242.213C20.2539 242.311 20.5703 242.43 20.8867 242.57C21.2031 242.707 21.4922 242.883 21.7539 243.098C22.0117 243.297 22.2188 243.541 22.375 243.83C22.5352 244.119 22.6152 244.453 22.6152 244.832C22.6152 245.215 22.5293 245.549 22.3574 245.834C22.1895 246.119 21.9707 246.355 21.7012 246.543C21.4316 246.734 21.127 246.879 20.7871 246.977C20.4473 247.07 20.1074 247.117 19.7676 247.117C19.3613 247.117 18.9609 247.049 18.5664 246.912C18.1758 246.775 17.8359 246.578 17.5469 246.32C17.2891 246.098 17.084 245.838 16.9316 245.541C16.7832 245.24 16.7031 244.906 16.6914 244.539H17.7988C17.834 244.805 17.9062 245.041 18.0156 245.248C18.125 245.451 18.2656 245.623 18.4375 245.764C18.6094 245.908 18.8066 246.018 19.0293 246.092C19.2559 246.162 19.502 246.197 19.7676 246.197C19.9785 246.197 20.1855 246.172 20.3887 246.121C20.5957 246.066 20.7793 245.982 20.9395 245.869C21.0996 245.76 21.2305 245.621 21.332 245.453C21.4336 245.281 21.4844 245.078 21.4844 244.844ZM29.0399 243.057H25.4774V246.08H29.6317V247H24.3934V238.469H29.579V239.395H25.4774V242.137H29.0399V243.057ZM34.4978 243.52H32.7927V247H31.7146V238.469H34.2166C34.615 238.477 34.99 238.533 35.3416 238.639C35.6931 238.744 36.0017 238.902 36.2673 239.113C36.5291 239.324 36.7341 239.59 36.8826 239.91C37.0349 240.227 37.1111 240.6 37.1111 241.029C37.1111 241.307 37.0701 241.561 36.988 241.791C36.9099 242.021 36.8005 242.23 36.6599 242.418C36.5193 242.605 36.3513 242.771 36.156 242.916C35.9607 243.061 35.7459 243.184 35.5115 243.285L37.322 246.93L37.3162 247H36.1736L34.4978 243.52ZM32.7927 242.629H34.2459C34.488 242.625 34.7166 242.588 34.9314 242.518C35.1462 242.443 35.3357 242.338 35.4998 242.201C35.6599 242.064 35.7869 241.898 35.8806 241.703C35.9744 241.504 36.0212 241.275 36.0212 241.018C36.0212 240.744 35.9763 240.506 35.8865 240.303C35.7966 240.096 35.6716 239.922 35.5115 239.781C35.3513 239.645 35.1599 239.541 34.9373 239.471C34.7185 239.4 34.4783 239.363 34.2166 239.359H32.7927V242.629ZM41.0924 247L38.3971 238.469H39.5573L41.4323 244.838L41.5553 245.254L41.6842 244.826L43.5709 238.469H44.7252L42.0358 247H41.0924ZM51.021 243.057H47.4585V246.08H51.6128V247H46.3745V238.469H51.5601V239.395H47.4585V242.137H51.021V243.057ZM56.4789 243.52H54.7738V247H53.6957V238.469H56.1977C56.5961 238.477 56.9711 238.533 57.3227 238.639C57.6742 238.744 57.9828 238.902 58.2484 239.113C58.5102 239.324 58.7152 239.59 58.8637 239.91C59.016 240.227 59.0922 240.6 59.0922 241.029C59.0922 241.307 59.0512 241.561 58.9691 241.791C58.891 242.021 58.7816 242.23 58.641 242.418C58.5004 242.605 58.3324 242.771 58.1371 242.916C57.9418 243.061 57.727 243.184 57.4926 243.285L59.3031 246.93L59.2973 247H58.1547L56.4789 243.52ZM54.7738 242.629H56.227C56.4691 242.625 56.6977 242.588 56.9125 242.518C57.1273 242.443 57.3168 242.338 57.4809 242.201C57.641 242.064 57.768 241.898 57.8617 241.703C57.9555 241.504 58.0023 241.275 58.0023 241.018C58.0023 240.744 57.9574 240.506 57.8676 240.303C57.7777 240.096 57.6527 239.922 57.4926 239.781C57.3324 239.645 57.141 239.541 56.9184 239.471C56.6996 239.4 56.4594 239.363 56.1977 239.359H54.7738V242.629Z" fill="#091315"/>
</svg>
