<svg viewBox="0 0 195 246" fill="none" xmlns="http://www.w3.org/2000/svg">
<g id="Frame" clip-path="url(#clip0_5152_5695)">
<path id="Vector" d="M124.32 184.414L141.91 215.143L159.5 184.414L124.32 184.414Z" fill="#B3E1E8"/>
<path id="Vector_2" d="M106.729 153.75L89.1384 184.414L124.319 184.414L106.729 153.75Z" fill="#CAEAEE"/>
<path id="Vector_3" d="M89.1385 123.021L71.548 153.75L106.729 153.75L89.1385 123.021Z" fill="#7ED0DC"/>
<path id="Vector_4" d="M124.319 123.021L89.1384 123.021L106.729 153.75L124.319 123.021Z" fill="#90D5E0"/>
<path id="Vector_5" d="M141.91 92.2929L124.32 123.021L159.5 123.021L141.91 92.2929Z" fill="#90D5E0"/>
<path id="Vector_6" d="M124.319 123.021L106.729 92.2929L89.1384 123.021L124.319 123.021Z" fill="#6BCBD8"/>
<path id="Vector_7" d="M177.091 215.143L159.5 245.871L194.681 245.871L177.091 215.143Z" fill="#90D5E0"/>
<path id="Vector_8" d="M89.1384 61.5644L106.729 92.293L124.319 61.5644L89.1384 61.5644Z" fill="#6BCBD8"/>
<path id="Vector_9" d="M89.1595 0.000276935L71.569 30.6645L106.75 30.6646L89.1595 0.000276935Z" fill="#CAEAEE"/>
<path id="Vector_10" d="M17.5904 123.021L-5.34058e-05 153.75L35.1809 153.75L17.5904 123.021Z" fill="#7ED0DC"/>
</g>
<defs>
<clipPath id="clip0_5152_5695">
<rect width="195" height="246" fill="white" transform="translate(195 246) rotate(-180)"/>
</clipPath>
</defs>
</svg>
