<svg viewBox="0 0 18 18" fill="none" xmlns="http://www.w3.org/2000/svg">
<g id="icons">
<path id="Vector" d="M15.375 13.977V9.27052C15.375 8.89127 15.2968 8.51598 15.1452 8.16749C14.9936 7.819 14.7717 7.50459 14.4931 7.24338L9.97608 3.00946C9.7128 2.76263 9.36351 2.625 9.00035 2.625C8.6372 2.625 8.28791 2.76263 8.02462 3.00946L3.50687 7.24338C3.22825 7.50459 3.00639 7.819 2.85479 8.16749C2.70318 8.51598 2.625 8.89127 2.625 9.27052V13.977C2.625 14.3478 2.77426 14.7033 3.03993 14.9655C3.30561 15.2277 3.66594 15.375 4.04167 15.375H13.9583C14.3341 15.375 14.6944 15.2277 14.9601 14.9655C15.2257 14.7033 15.375 14.3478 15.375 13.977Z" stroke="currentColor" stroke-width="1.2" stroke-linecap="round" stroke-linejoin="round"/>
<path id="Line 63" d="M5.625 12.375H12.375" stroke="currentColor" stroke-width="1.2" stroke-linecap="round"/>
</g>
</svg>
